<?xml version="1.0" encoding="UTF-8"?>
<svg id="Artwork" xmlns="http://www.w3.org/2000/svg" viewBox="0 0 265 184">
  <defs>
    <style>
      .cls-1 {
        fill: none;
        stroke: #1c334a;
        stroke-linecap: round;
        stroke-linejoin: round;
        stroke-width: 5px;
      }
    </style>
  </defs>
  <g>
    <g id="Rectangle_2545" data-name="Rectangle 2545">
      <path class="cls-1" d="m190,44.83v73.83c0,2.26-1.97,4.08-4.4,4.08h-106.19c-2.43,0-4.4-1.83-4.4-4.08V44.83c0-2.26,1.97-4.08,4.4-4.08h106.19c2.43,0,4.4,1.83,4.4,4.08Z"/>
    </g>
    <rect class="cls-1" x="114.5" y="122.75" width="36" height="20.5"/>
    <line class="cls-1" x1="75" y1="106.75" x2="190" y2="106.75"/>
    <circle id="Ellipse_220" data-name="Ellipse 220" class="cls-1" cx="132.5" cy="114.75" r="1"/>
  </g>
  <g>
    <path class="cls-1" d="m143.36,53.18c0-.48-.04-.94-.1-1.4-5.72.06-10.35,4.71-10.35,10.45,0,.48.04.94.11,1.4,5.72-.06,10.35-4.71,10.35-10.45Z"/>
    <path class="cls-1" d="m145.39,74.78c0-3.36,1.71-6.31,4.3-8.05-2.39-2.99-5.74-4.51-8.12-4.51-4.09,0-5.92,1.56-8.32,1.56s-4.23-1.56-8.32-1.56-11.07,4.46-11.07,13.22,6.38,20.28,11.66,20.28c4.53,0,5.35-1.67,7.72-1.67s3.19,1.67,7.72,1.67c3.71,0,7.96-5.68,10.16-12.1-3.38-1.51-5.74-4.9-5.74-8.84Z"/>
  </g>
</svg>