<?xml version="1.0" encoding="UTF-8" standalone="no"?>
<!DOCTYPE svg PUBLIC "-//W3C//DTD SVG 1.1//EN" "http://www.w3.org/Graphics/SVG/1.1/DTD/svg11.dtd">
<!-- Created with Vectornator (http://vectornator.io/) -->
<svg height="100%" stroke-miterlimit="10" style="fill-rule:nonzero;clip-rule:evenodd;stroke-linecap:round;stroke-linejoin:round;" version="1.1" viewBox="0 0 600 600" width="100%" xml:space="preserve" xmlns="http://www.w3.org/2000/svg" xmlns:vectornator="http://vectornator.io" xmlns:xlink="http://www.w3.org/1999/xlink">
<defs/>
<path d="M0 0L600 0L600 600L0 600L0 0Z" fill="#ffffff" fill-rule="nonzero" opacity="1" stroke="none"/>
<g id="Canvas" vectornator:layerName="Canvas">
<g opacity="1" vectornator:layerName="Group">
<g opacity="1" vectornator:layerName="g">
<path d="M70.4423 313.39C70.4423 331.642 68.9822 337.587 65.2274 341.968C61.0486 345.731 55.6234 347.812 50 347.808L51.4602 358.238C60.1784 358.356 68.6378 355.276 75.24 349.582C78.7923 345.249 81.4358 340.247 83.0126 334.871C84.5896 329.495 85.0676 323.857 84.4182 318.292L84.4182 249.247L70.4423 249.247L70.4423 312.973L70.4423 313.39Z" fill="#4e4e4e" fill-rule="nonzero" opacity="1" stroke="none" vectornator:layerName="path"/>
<path d="M174.671 305.164C174.671 312.986 174.671 319.974 175.296 326.023L162.885 326.023L162.051 313.612C159.455 318.003 155.742 321.629 151.291 324.12C146.839 326.612 141.807 327.88 136.706 327.796C124.608 327.796 110.215 321.226 110.215 294.421L110.215 249.886L124.191 249.886L124.191 291.605C124.191 306.102 128.676 315.802 141.296 315.802C143.892 315.83 146.468 315.339 148.872 314.358C151.276 313.378 153.46 311.927 155.296 310.091C157.132 308.255 158.583 306.07 159.564 303.666C160.545 301.262 161.036 298.686 161.008 296.09L161.008 249.365L174.984 249.365L174.984 304.747L174.671 305.164Z" fill="#4e4e4e" fill-rule="nonzero" opacity="1" stroke="none" vectornator:layerName="path"/>
<path d="M201.162 274.698C201.162 264.999 201.162 257.072 200.536 249.876L213.052 249.876L213.678 262.913C216.466 258.203 220.481 254.337 225.293 251.729C230.105 249.121 235.535 247.868 241.004 248.103C259.569 248.103 273.545 263.643 273.545 286.797C273.545 314.123 256.753 327.682 238.605 327.682C233.96 327.889 229.34 326.894 225.193 324.793C221.045 322.691 217.51 319.555 214.929 315.687L214.929 315.687L214.929 357.406L201.162 357.406L201.162 275.011L201.162 274.698ZM214.929 295.036C214.967 296.929 215.177 298.814 215.555 300.669C216.739 305.3 219.432 309.404 223.21 312.332C226.988 315.26 231.635 316.844 236.415 316.835C251.121 316.835 259.777 304.84 259.777 287.423C259.777 272.195 251.642 259.158 236.936 259.158C231.117 259.635 225.671 262.218 221.619 266.423C217.568 270.627 215.189 276.166 214.929 281.999L214.929 295.036Z" fill="#4e4e4e" fill-rule="nonzero" opacity="1" stroke="none" vectornator:layerName="path"/>
<path d="M298.446 249.805L315.238 294.757C317.011 299.763 318.888 305.813 320.14 310.297C321.6 305.708 323.164 299.868 325.042 294.444L340.269 249.805L354.975 249.805L334.116 304.04C323.686 330.114 317.324 343.568 307.728 351.704C302.895 356.118 297.003 359.208 290.624 360.673L287.182 348.992C291.642 347.526 295.784 345.226 299.385 342.212C304.473 338.066 308.511 332.777 311.17 326.776C311.739 325.737 312.127 324.608 312.317 323.439C312.199 322.18 311.882 320.948 311.379 319.788L283.01 249.596L298.237 249.596L298.446 249.805Z" fill="#4e4e4e" fill-rule="nonzero" opacity="1" stroke="none" vectornator:layerName="path"/>
<path d="M392.077 227.925L392.077 249.828L412.102 249.828L412.102 260.258L392.077 260.258L392.077 301.351C392.077 310.738 394.789 316.161 402.507 316.161C405.248 316.206 407.983 315.89 410.642 315.222L411.268 325.652C407.281 327.033 403.074 327.67 398.857 327.53C396.064 327.704 393.266 327.273 390.656 326.265C388.045 325.256 385.684 323.695 383.733 321.689C379.485 316.007 377.547 308.926 378.31 301.872L378.31 260.153L366.42 260.153L366.42 249.723L378.519 249.723L378.519 231.159L392.077 227.925Z" fill="#4e4e4e" fill-rule="nonzero" opacity="1" stroke="none" vectornator:layerName="path"/>
<path d="M437.847 290.354C437.564 293.891 438.052 297.448 439.278 300.778C440.504 304.108 442.438 307.132 444.948 309.641C447.457 312.15 450.481 314.084 453.811 315.31C457.141 316.536 460.697 317.024 464.234 316.741C471.389 316.901 478.496 315.551 485.094 312.778L487.493 323.208C479.397 326.543 470.692 328.142 461.94 327.901C456.837 328.25 451.72 327.492 446.938 325.678C442.157 323.864 437.824 321.037 434.238 317.391C430.651 313.745 427.896 309.366 426.16 304.556C424.425 299.745 423.751 294.616 424.184 289.52C424.184 266.574 437.847 248.426 460.167 248.426C485.198 248.426 491.456 270.329 491.456 284.305C491.59 286.458 491.59 288.618 491.456 290.771L437.534 290.771L437.847 290.354ZM478.732 279.924C479.134 277.136 478.934 274.294 478.145 271.589C477.357 268.884 475.997 266.38 474.159 264.245C472.32 262.11 470.046 260.394 467.488 259.213C464.931 258.031 462.149 257.412 459.332 257.396C453.602 257.811 448.233 260.351 444.278 264.518C440.322 268.686 438.066 274.18 437.951 279.924L478.732 279.924Z" fill="#4e4e4e" fill-rule="nonzero" opacity="1" stroke="none" vectornator:layerName="path"/>
<path d="M512.661 273.522C512.661 264.553 512.661 256.835 512.036 249.743L524.551 249.743L524.551 264.657L525.177 264.657C526.491 260.054 529.205 255.974 532.943 252.984C536.681 249.993 541.257 248.241 546.037 247.97C547.352 247.797 548.685 247.797 550 247.97L550 261.007C548.406 260.822 546.796 260.822 545.202 261.007C540.468 261.19 535.962 263.091 532.526 266.354C529.091 269.617 526.96 274.018 526.533 278.737C526.143 280.871 525.934 283.035 525.907 285.204L525.907 325.776L512.14 325.776L512.14 273.627L512.661 273.522Z" fill="#4e4e4e" fill-rule="nonzero" opacity="1" stroke="none" vectornator:layerName="path"/>
</g>
<g opacity="1" vectornator:layerName="g">
<path d="M506.537 40.3174C506.965 47.3242 505.298 54.2998 501.748 60.3557C498.197 66.4118 492.925 71.2738 486.602 74.3227C480.279 77.3715 473.191 78.4691 466.242 77.4757C459.293 76.4821 452.796 73.4426 447.581 68.7441C442.365 64.0457 438.666 57.901 436.955 51.0929C435.244 44.2847 435.598 37.1213 437.973 30.5153C440.347 23.9092 444.634 18.1594 450.288 13.9985C455.942 9.83752 462.706 7.45371 469.72 7.15073C474.318 6.8977 478.921 7.55617 483.263 9.08827C487.606 10.6204 491.603 12.9959 495.025 16.0781C498.446 19.1604 501.225 22.8887 503.201 27.0486C505.176 31.2084 506.31 35.7178 506.537 40.3174L506.537 40.3174Z" fill="#767677" fill-rule="nonzero" opacity="1" stroke="none" vectornator:layerName="path"/>
<path d="M300.302 448.779C206.435 448.779 123.936 415.091 81.2779 365.341C97.8292 410.097 127.694 448.708 166.853 475.977C206.011 503.247 252.585 517.865 300.302 517.865C348.021 517.865 394.593 503.247 433.753 475.977C472.911 448.708 502.776 410.097 519.328 365.341C476.775 415.091 394.588 448.779 300.302 448.779Z" fill="#f37726" fill-rule="nonzero" opacity="1" stroke="none" vectornator:layerName="path"/>
<path d="M300.302 125.269C394.171 125.269 476.67 158.957 519.328 208.706C502.776 163.951 472.911 125.34 433.753 98.0705C394.593 70.8012 348.021 56.1828 300.302 56.1828C252.585 56.1828 206.011 70.8012 166.853 98.0705C127.694 125.34 97.8292 163.951 81.2779 208.706C123.936 158.852 206.018 125.269 300.302 125.269Z" fill="#f37726" fill-rule="nonzero" opacity="1" stroke="none" vectornator:layerName="path"/>
<path d="M171.082 545.594C171.633 554.42 169.544 563.209 165.081 570.843C160.618 578.477 153.984 584.61 146.023 588.46C138.062 592.31 129.136 593.702 120.381 592.461C111.626 591.219 103.438 587.399 96.862 581.488C90.2856 575.577 85.6179 567.841 83.4534 559.268C81.289 550.694 81.726 541.67 84.7086 533.345C87.6912 525.021 93.0844 517.773 100.201 512.524C107.318 507.276 115.836 504.265 124.67 503.875C130.457 503.566 136.249 504.399 141.713 506.329C147.178 508.258 152.209 511.245 156.519 515.119C160.829 518.993 164.334 523.679 166.833 528.908C169.332 534.137 170.776 539.807 171.082 545.594L171.082 545.594Z" fill="#9e9e9e" fill-rule="nonzero" opacity="1" stroke="none" vectornator:layerName="path"/>
<path d="M91.946 113.931C86.8881 114.071 81.9018 112.712 77.6141 110.025C73.3265 107.339 69.929 103.444 67.8488 98.8317C65.7687 94.2192 65.0988 89.0946 65.9233 84.1025C66.7479 79.1103 69.0302 74.4733 72.4831 70.7748C75.9361 67.0762 80.4056 64.4812 85.3295 63.3161C90.2532 62.1509 95.4117 62.4677 100.156 64.2265C104.9 65.9853 109.019 69.1076 111.993 73.2009C114.968 77.2941 116.666 82.1755 116.873 87.231C117.071 94.067 114.564 100.705 109.897 105.704C105.23 110.703 98.7795 113.659 91.946 113.931Z" fill="#616262" fill-rule="nonzero" opacity="1" stroke="none" vectornator:layerName="path"/>
</g>
</g>
</g>
</svg>
