<?xml version="1.0" encoding="UTF-8" standalone="no"?>
<!DOCTYPE svg PUBLIC "-//W3C//DTD SVG 1.1//EN" "http://www.w3.org/Graphics/SVG/1.1/DTD/svg11.dtd">
<!-- Created with Vectornator (http://vectornator.io/) -->
<svg height="100%" stroke-miterlimit="10" style="fill-rule:nonzero;clip-rule:evenodd;stroke-linecap:round;stroke-linejoin:round;" version="1.1" viewBox="0 0 256 256" width="100%" xml:space="preserve" xmlns="http://www.w3.org/2000/svg" xmlns:vectornator="http://vectornator.io" xmlns:xlink="http://www.w3.org/1999/xlink">
<defs/>
<g id="Untitled" vectornator:layerName="Untitled">
<path d="M144.7 78.9L130.3 93.9L117.3 107.4C113.4 111.5 102.4 122.6 99.8 125.4C97.2 128.2 95.5 130 94.8 130.7C93.1 132.4 91.9 134 91 135.4C90.1 136.8 89.3 138.4 88.6 140.1C88 141.2 87.2 143.3 86.3 146.2C85.3 149.2 84.4 152.4 83.3 155.9C82.3 159.4 81.3 162.8 80.5 166.1C79.6 169.4 79 171.9 78.8 173.6C78.3 176.8 78.6 179.1 79.7 180.5C80.8 181.9 82.9 182.3 86.1 182C87.7 181.7 90 181.2 93.1 180.4C96.3 179.5 99.6 178.5 103.1 177.3C106.6 176.1 110 174.9 113.2 173.7C116.4 172.5 118.8 171.4 120.5 170.5C122.2 169.7 123.8 168.8 125.3 167.6C126.8 166.3 128.2 165.2 129.4 164.1C129.9 163.7 131.4 162.2 133.9 159.6C136.4 157 139.5 153.7 143.4 149.7C147.2 145.7 159.2 133.6 163.9 128.7L178.1 113.7L215.3 74.4L181.7 40.4L144.7 78.9L144.7 78.9L144.7 78.9ZM226.4 100.2L226.4 155.7L226.4 190.3L226.4 190.1L226.4 197.4C226.4 216.4 210.9 231.8 191.9 231.8L150.2 231.8L150.2 231.8L105.8 231.8L105.8 231.8L64.1 231.8C45.1 231.8 29.7 216.3 29.7 197.4L29.7 189.7L29.7 189.6L29.7 100.2L29.7 65.2L29.7 65.7L29.7 58.6C29.7 39.6 45.2 24.2 64.1 24.2L105.8 24.2L131 24.2L142.5 24.2L148.4 24.2L171.7 4.6L164 4.6L164 4.6L64.1 4.6C35.1 4.6 11.4 27.5 10 56.1L10 56.1L10 58.7L10 59L10 59L10 197.4L10 200L10.1 200C11.5 228.6 35.2 251.5 64.2 251.5L65.2 251.5L191 251.5L192 251.5C220.9 251.5 244.7 228.6 246 200L246.1 200L246.1 197.4L246.1 80.9L226.4 100.2L226.4 100.2L226.4 100.2ZM221.7 12.2C220.4 11.9 219.2 11.8 218 11.9L218.5 11.9C219.6 11.9 220.6 12 221.7 12.2L221.7 12.2L221.7 12.2ZM242.9 37.3C243.1 33.8 242.1 30 240.2 26.4C238.9 23.9 237.1 21.5 234.9 19.3C230.9 15.4 226.2 13 221.7 12.2C220.7 12 219.6 11.9 218.5 11.9L218 11.9C216 11.9 214 12.2 211.9 12.8C209.7 13.5 207.5 14.7 205.4 16.4C203.8 17.8 201.8 19.7 199.3 22.1C196.8 24.5 194.7 26.5 192.9 28.2L226.3 62.2C227.3 61.3 228.5 60.2 229.7 59C230.7 57.9 231.9 56.7 233.3 55.3C234.7 53.9 236.3 52.3 238 50.5C239.6 48.7 240.8 46.7 241.6 44.7C242.4 42.7 242.7 40.7 242.7 38.7C242.9 38.2 242.9 37.7 242.9 37.3L242.9 37.3L242.9 37.3Z" fill="#f5891d" fill-rule="nonzero" opacity="1" stroke="none" vectornator:layerName="path"/>
</g>
</svg>
