<?xml version="1.0" standalone="no"?><!DOCTYPE svg PUBLIC "-//W3C//DTD SVG 1.1//EN" "http://www.w3.org/Graphics/SVG/1.1/DTD/svg11.dtd"><svg t="1725028909493" class="icon" viewBox="0 0 1024 1024" version="1.1" xmlns="http://www.w3.org/2000/svg" p-id="13611" xmlns:xlink="http://www.w3.org/1999/xlink" width="16" height="16"><path d="M621.728 475.424q0-14.848-10.848-25.728t-25.728-10.848l-146.272 0q-14.848 0-25.728 10.848t-10.848 25.728 10.848 25.728 25.728 10.848l146.272 0q14.848 0 25.728-10.848t10.848-25.728zM950.848 365.728l0 548.576q0 14.848-10.848 25.728t-25.728 10.848l-804.576 0q-14.848 0-25.728-10.848t-10.848-25.728l0-548.576q0-14.848 10.848-25.728t25.728-10.848l804.576 0q14.848 0 25.728 10.848t10.848 25.728zM987.424 109.728l0 146.272q0 14.848-10.848 25.728t-25.728 10.848l-877.728 0q-14.848 0-25.728-10.848t-10.848-25.728l0-146.272q0-14.848 10.848-25.728t25.728-10.848l877.728 0q14.848 0 25.728 10.848t10.848 25.728z" p-id="13612"></path></svg>