<?xml version="1.0" standalone="no"?><!DOCTYPE svg PUBLIC "-//W3C//DTD SVG 1.1//EN" "http://www.w3.org/Graphics/SVG/1.1/DTD/svg11.dtd"><svg t="1725029193823" class="icon" viewBox="0 0 1024 1024" version="1.1" xmlns="http://www.w3.org/2000/svg" p-id="19193" xmlns:xlink="http://www.w3.org/1999/xlink" width="16" height="16"><path d="M725.333333 938.666667H298.666667c-51.84 0-85.333333-33.493333-85.333334-85.333334V426.666667a42.666667 42.666667 0 0 1 85.333334 0v426.666666h426.666666V426.666667a42.666667 42.666667 0 1 1 85.333334 0v426.666666c0 51.84-33.493333 85.333333-85.333334 85.333334z m85.333334-640H213.333333a42.666667 42.666667 0 0 1 0-85.333334h170.666667a42.666667 42.666667 0 0 1 42.666667-42.666666h170.666666a42.666667 42.666667 0 0 1 42.666667 42.666666h170.666667a42.666667 42.666667 0 1 1 0 85.333334z" p-id="19194"></path></svg>