<?xml version="1.0" standalone="no"?><!DOCTYPE svg PUBLIC "-//W3C//DTD SVG 1.1//EN" "http://www.w3.org/Graphics/SVG/1.1/DTD/svg11.dtd"><svg t="1725029478988" class="icon" viewBox="0 0 1024 1024" version="1.1" xmlns="http://www.w3.org/2000/svg" p-id="24505" xmlns:xlink="http://www.w3.org/1999/xlink" width="16" height="16"><path d="M932.1 190.55h-84v-65.76c0-8.54-6.4-15.72-14.9-16.58-40.49-4.08-160.4-6.95-320.82 72.04-165.92-78.57-281.95-76.15-321.44-72.1-8.46 0.87-14.85 8.06-14.85 16.57v65.83h-84c-15.46 0-28 12.54-28 28v602c0 8.65 4 16.81 10.83 22.12s15.73 7.15 24.11 5.01c2.64-0.68 264.7-65.87 393.26 62.67 5.41 5.42 12.58 8.2 19.8 8.2 5.58 0 11.18-1.66 16.03-5.05 186.05-129.99 393.44-66.91 395.51-66.26a28.01 28.01 0 0 0 36.46-26.7v-602c0.01-15.46-12.53-27.99-27.99-27.99z m-448 64.85h56v448h-56v-448z m420 529.56c-70.76-13.9-232.63-29.51-389.27 70.11-76-64.13-178.64-80.74-264.59-80.74-53.2 0-100.01 6.36-130.14 11.76V246.55h56v462.24c0 9.31 7.6 16.85 16.91 16.66 43.27-0.85 165.5 3.83 319.09 70.79 158.09-66.62 276.77-71.6 319.11-70.81 9.31 0.17 16.89-7.35 16.89-16.66V246.55h56v538.41z" fill="#e97b2c" p-id="24506"></path></svg>