<?xml version="1.0" standalone="no"?><!DOCTYPE svg PUBLIC "-//W3C//DTD SVG 1.1//EN" "http://www.w3.org/Graphics/SVG/1.1/DTD/svg11.dtd"><svg t="1725029430530" class="icon" viewBox="0 0 1422 1024" version="1.1" xmlns="http://www.w3.org/2000/svg" p-id="22580" xmlns:xlink="http://www.w3.org/1999/xlink" width="22.21875" height="16"><path d="M0 0m49.498501 0l1138.465532 0q49.498501 0 49.498502 49.498501l0 791.976023q0 49.498501-49.498502 49.498501l-1138.465532 0q-49.498501 0-49.498501-49.498501l0-791.976023q0-49.498501 49.498501-49.498501Z" fill="#F93939" p-id="22581"></path><path d="M1119.606603 0H117.855932C52.765402 0 0 53.18614 0 118.796403v653.380219C0 837.786885 52.765402 890.973025 117.855932 890.973025h1001.750671C1184.697132 890.973025 1237.462535 837.786885 1237.462535 772.176622V118.796403C1237.462535 53.18614 1184.697132 0 1119.606603 0z" fill="#F93939" p-id="22582"></path><path d="M323.967692 429.448998l-86.622378 45.90986 16.50775-97.239806-69.990881-68.901914 96.819069-14.057574 43.311189-88.503321 43.236941 88.503321 96.819069 14.057574-70.114628 68.901914 16.606748 97.190308-86.54813-45.860362zM530.376442 178.194605h58.903217v59.398202h-58.903217V178.194605z m58.903217 118.796403h58.952715v59.398202H589.279659V296.991008z m0 118.796404h58.952715v59.398201H589.279659v-59.398201z m-58.903217 118.796403h58.903217V593.982017h-58.903217v-59.398202z" fill="#FFDA2C" p-id="22583"></path></svg>