<svg t="1725119062508" class="icon" viewBox="0 0 1024 1024" version="1.1" xmlns="http://www.w3.org/2000/svg" p-id="9595" width="16" height="16"><path d="M277.333333 42.666667C147.733333 42.666667 42.666667 147.733333 42.666667 277.333333s105.066667 234.666667 234.666666 234.666667 234.666667-105.066667 234.666667-234.666667S406.933333 42.666667 277.333333 42.666667z m-21.333333 85.333333a21.333333 21.333333 0 0 1 21.333333 21.333333v128h106.666667a21.333333 21.333333 0 0 1 0 42.666667h-128a21.333333 21.333333 0 0 1-21.333333-21.333333V149.333333a21.333333 21.333333 0 0 1 21.333333-21.333333z m277.333333 42.666667c8.426667 20.202667 14.250667 41.706667 17.706667 64H821.333333c29.418667 0 53.333333 23.936 53.333334 53.333333V789.333333H149.333333V523.2a277.76 277.76 0 0 1-64-46.037333V789.333333h-10.666666a32 32 0 1 0 0 64h874.666666a32 32 0 1 0 0-64H938.666667V288c0-64.704-52.650667-117.333333-117.333334-117.333333H533.333333z m117.333334 512a32 32 0 1 0 0 64h106.666666a32 32 0 1 0 0-64h-106.666666z" p-id="9596"></path></svg>
