<?xml version="1.0" standalone="no"?><!DOCTYPE svg PUBLIC "-//W3C//DTD SVG 1.1//EN" "http://www.w3.org/Graphics/SVG/1.1/DTD/svg11.dtd"><svg t="1725029237378" class="icon" viewBox="0 0 1024 1024" version="1.1" xmlns="http://www.w3.org/2000/svg" p-id="20001" xmlns:xlink="http://www.w3.org/1999/xlink" width="16" height="16"><path d="M886.445134 156.453285 136.084375 156.453285c-40.594557 0-73.476455 32.873712-73.476455 73.482595l0 564.126194c0 40.532135 32.881898 73.484641 73.476455 73.484641l750.360759 0c40.594557 0 73.474408-32.952506 73.474408-73.484641L959.919543 229.935879C959.920566 189.326996 927.039691 156.453285 886.445134 156.453285zM914.485771 763.321956c0 36.18513-30.002314 65.466014-67.049069 65.466014L175.085644 828.78797c-37.040614 0-67.042929-29.280884-67.042929-65.466014L108.042715 260.675998c0-36.199457 30.002314-65.527412 67.042929-65.527412l672.352081 0c37.046754 0 67.049069 29.327956 67.049069 65.527412L914.486794 763.321956zM830.5368 792.037974c27.860535 0 50.455135-22.094204 50.455135-49.285496l0-67.913762L752.10345 792.037974 830.5368 792.037974zM830.5368 230.547817 752.10345 230.547817l128.888486 117.201306 0-67.913762C880.991935 252.642021 858.397335 230.547817 830.5368 230.547817zM552.851407 296.677956l0 60.892859c20.61655-2.503007 46.886867 41.065278 46.886867 60.287061l74.196863 0C673.935136 366.169657 622.861924 296.677956 552.851407 296.677956zM552.851407 486.869646l0 64.098877c18.186198 11.392468 51.077306 13.226233 53.05331 50.846038 2.312672 44.031842-34.395368 41.984207-52.643987 53.376675l-0.408299 61.568241c18.264992-4.849448 121.020284-14.645558 121.020284-118.025067C673.872714 547.047214 613.96223 503.156588 552.851407 486.869646zM471.962122 276.901541l-0.054235 24.306592c-72.989361 10.231015-128.286782 58.481949-128.349203 116.5249 0 58.042951 55.296397 106.358353 128.286782 116.588345l0 122.283044c-31.109532-8.81783-53.210899-31.413454-53.210899-57.932434l-75.074859-0.062422c-0.054235 58.105373 71.301929 106.356306 144.291291 116.587322l0 24.306592 52.53654 0.057305 0.771573-462.658222L471.962122 276.902564zM471.844441 475.712539c-31.04711-8.81783-53.148477-31.414477-53.148477-57.980529 0-26.51898 22.164812-49.113581 53.210899-57.932434L471.844441 475.712539zM138.901537 280.573163l0 67.89739 128.951931-117.184933-78.43335 0C161.559583 231.28562 138.901537 253.316379 138.901537 280.573163zM138.901537 743.426837c0 27.192316 22.658046 49.285496 50.51858 49.285496l78.43335 0-128.951931-117.199259L138.901537 743.426837z" fill="#0e932e" p-id="20002"></path></svg>