<?xml version="1.0" standalone="no"?><!DOCTYPE svg PUBLIC "-//W3C//DTD SVG 1.1//EN" "http://www.w3.org/Graphics/SVG/1.1/DTD/svg11.dtd"><svg t="1725029020646" class="icon" viewBox="0 0 1025 1024" version="1.1" xmlns="http://www.w3.org/2000/svg" p-id="15558" xmlns:xlink="http://www.w3.org/1999/xlink" width="16.015625" height="16"><path d="M427.05152 1024c-8.533333 0-17.066667-4.266667-21.333333-4.266667C392.918187 1011.2 384.384853 994.133333 384.384853 981.333333l0-371.2L8.918187 68.266667C0.384853 55.466667-3.881813 38.4 4.65152 21.333333 13.184853 8.533333 25.984853 0 43.05152 0l938.666667 0c17.066667 0 29.866667 8.533333 38.4 21.333333 8.533333 12.8 4.266667 29.866667-4.266667 42.666667L640.384853 610.133333 640.384853 896c0 17.066667-8.533333 29.866667-25.6 38.4l-170.666667 85.333333C439.85152 1024 435.584853 1024 427.05152 1024zM124.118187 85.333333l337.066667 486.4c4.266667 8.533333 8.533333 17.066667 8.533333 25.6l0 315.733333 85.333333-42.666667L555.05152 597.333333c0-8.533333 4.266667-17.066667 8.533333-25.6L900.65152 85.333333 124.118187 85.333333z" p-id="15559"></path></svg>