<svg t="1725029725963" class="icon" viewBox="0 0 1736 1024" version="1.1" xmlns="http://www.w3.org/2000/svg" p-id="33320" width="16" height="16"><path d="M210.409739 114.064696V28.315826A28.137739 28.137739 0 0 0 182.272 0H28.315826a28.315826 28.315826 0 0 0 0 56.631652h125.952v189.44H28.315826v44.121044h125.952v55.385043H28.315826v307.867826h125.952v55.206957H28.315826v43.809391h125.952v209.341217c0 15.62713 12.466087 28.004174 28.137739 28.004174a27.91513 27.91513 0 0 0 28.182261-28.004174v-77.467826h110.859131v1.602783c0.178087 3.561739 7.568696 94.029913 45.723826 94.029913h708.830608c38.15513 0 45.545739-93.273043 45.857392-94.208v-1.558261h46.747826v1.558261c0 0.934957 8.013913 94.208 46.169043 94.208h323.227826c38.466783 0 45.81287-93.273043 46.124522-94.208v-1.558261h139.085913V114.064696H210.409739z m125.640348 318.508521H881.085217a38.733913 38.733913 0 0 1 0 77.467826H336.050087a38.64487 38.64487 0 0 1-38.199652-38.822956c0-21.281391 17.051826-38.64487 38.199652-38.64487m0 231.691131a38.64487 38.64487 0 0 1 0-77.289739H881.085217a38.64487 38.64487 0 0 1 0 77.289739H336.050087z m736.656696 283.91513H370.287304a132.229565 132.229565 0 0 1-15.003826-47.682782h732.783305c-3.784348 20.925217-10.195478 41.405217-15.36 47.682782m462.313739 0h-317.261913a141.57913 141.57913 0 0 1-15.181913-47.682782h347.759304a145.942261 145.942261 0 0 1-15.315478 47.682782m-216.998957-139.085913A304.528696 304.528696 0 1 1 1317.843478 200.080696a304.528696 304.528696 0 0 1 0.178087 609.057391" fill="#425766" p-id="33321"></path><path d="M1480.258783 326.477913a477.139478 477.139478 0 0 0-116.736 90.913391 93.228522 93.228522 0 0 0-42.206609-11.442087c4.85287-40.514783 20.48-87.707826 58.323478-149.370434h-123.592348c-8.592696 73.505391-3.116522 124.349217 9.572174 164.418782-12.733217 8.013913-23.507478 18.832696-31.432348 31.610435a456.481391 456.481391 0 0 1-99.506087-103.602087c-17.051826 37.843478-33.970087 63.532522-62.285913 85.25913 58.323478 44.121043 105.961739 65.090783 146.610087 74.351305 0.890435 15.760696 4.986435 29.696 11.887305 42.696348-37.576348 16.250435-86.817391 25.644522-158.630957 23.908174 34.281739 43.809391 65.046261 75.597913 83.389218 107.653565 51.289043-29.250783 88.509217-59.926261 116.379826-90.423652 13.089391 6.856348 27.603478 10.685217 42.384695 11.130434-4.674783 40.336696-20.168348 87.885913-58.323478 149.370435h123.725913c8.904348-73.683478 3.116522-124.527304-8.904348-164.418782a106.852174 106.852174 0 0 0 31.432348-31.744c32.367304 23.596522 65.090783 56.943304 99.016348 103.735652 17.051826-37.888 33.970087-63.666087 62.285913-85.74887-58.991304-43.809391-106.095304-64.77913-146.921739-74.484869a97.636174 97.636174 0 0 0-11.575652-42.073044c37.531826-16.250435 86.505739-25.822609 158.630956-23.952696-34.54887-43.76487-65.224348-75.865043-83.522782-107.742608m-162.237218 209.252174a30.809043 30.809043 0 1 1 30.809044-30.764522 31.298783 31.298783 0 0 1-30.809044 30.809043" fill="#425766" p-id="33322"></path></svg>