<?xml version="1.0" standalone="no"?><!DOCTYPE svg PUBLIC "-//W3C//DTD SVG 1.1//EN" "http://www.w3.org/Graphics/SVG/1.1/DTD/svg11.dtd"><svg t="1725029138264" class="icon" viewBox="0 0 1024 1024" version="1.1" xmlns="http://www.w3.org/2000/svg" p-id="18333" xmlns:xlink="http://www.w3.org/1999/xlink" width="16" height="16"><path d="M810 538.8c-49-22.9-142.7-18.3-187.2 0-10.1 4.4-19.9 9.6-29.3 15.4 71 64.5 118.5 155.9 127.1 258.7h213c0.5 0 0.9 0.2 1.4 0.2 0.5 0 0.9-0.1 1.4-0.2h1.2v-0.1c14.2-1.6 25.4-15.2 25.4-32.1 0-109.1-63.3-202.7-153-241.9z m-342.6 5.3c-58.5-27.4-170.5-22-223.6 0C136.6 591.1 61 703.2 61 833.9c0 20.6 13.9 37.4 31.4 38.6h0.3c0.6 0 1.1 0.2 1.7 0.2 0.6 0 1.1-0.2 1.7-0.2H615c0.6 0 1.1 0.2 1.7 0.2 0.6 0 1.1-0.2 1.7-0.2h1.4v-0.2c17-1.9 30.3-18.3 30.3-38.5 0-130.6-75.6-242.7-182.7-289.7z m-117.1-33.9c98.8 0 179-80.3 179-179.5s-80.1-179.5-179-179.5-179 80.3-179 179.5 80.1 179.5 179 179.5z m361.6 0.3c82.5 0 149.4-67.1 149.4-149.8 0-82.7-66.9-149.8-149.4-149.8S562.5 278 562.5 360.7c0 82.7 66.9 149.8 149.4 149.8z" fill="#333333" p-id="18334"></path></svg>