<?xml version="1.0" standalone="no"?><!DOCTYPE svg PUBLIC "-//W3C//DTD SVG 1.1//EN" "http://www.w3.org/Graphics/SVG/1.1/DTD/svg11.dtd"><svg t="1725029386257" class="icon" viewBox="0 0 1228 1024" version="1.1" xmlns="http://www.w3.org/2000/svg" p-id="21938" xmlns:xlink="http://www.w3.org/1999/xlink" width="19.1875" height="16"><path d="M969.386667 1010.346667H259.413333C157.013333 1010.346667 68.266667 928.426667 68.266667 819.2V191.146667C68.266667 81.92 150.186667 0 259.413333 0h716.8C1078.613333 0 1160.533333 81.92 1160.533333 191.146667v634.88c0 102.4-81.92 184.32-191.146666 184.32zM259.413333 102.4c-47.786667 0-81.92 40.96-81.92 81.92V819.2c0 47.786667 40.96 81.92 81.92 81.92h716.8c47.786667 0 81.92-40.96 81.92-81.92V191.146667c0-47.786667-40.96-81.92-81.92-81.92H259.413333z" fill="#888888" p-id="21939"></path><path d="M54.613333 334.506667h1112.746667v102.4H54.613333z" fill="#979797" p-id="21940"></path><path d="M273.066667 225.28m-68.266667 0a68.266667 68.266667 0 1 0 136.533333 0 68.266667 68.266667 0 1 0-136.533333 0Z" fill="#888888" p-id="21941"></path><path d="M498.346667 225.28m-68.266667 0a68.266667 68.266667 0 1 0 136.533333 0 68.266667 68.266667 0 1 0-136.533333 0Z" fill="#888888" p-id="21942"></path><path d="M750.933333 225.28m-68.266666 0a68.266667 68.266667 0 1 0 136.533333 0 68.266667 68.266667 0 1 0-136.533333 0Z" fill="#888888" p-id="21943"></path><path d="M384.477867 833.194667c-6.826667 0-13.653333 0-20.48-6.826667l-129.706667-102.4c-6.826667-6.826667-13.653333-13.653333-13.653333-27.306667 0-6.826667 6.826667-20.48 13.653333-27.306666l129.706667-122.88c13.653333-13.653333 34.133333-13.653333 47.786666 0 13.653333 13.653333 13.653333 34.133333 0 47.786666l-102.4 95.573334 102.4 81.92c6.826667 13.653333 13.653333 34.133333 0 47.786666-6.826667 6.826667-13.653333 13.653333-27.306666 13.653334zM814.557867 833.194667c-13.653333 0-20.48-6.826667-27.306667-13.653334-13.653333-13.653333-6.826667-34.133333 6.826667-47.786666l102.4-81.92-102.4-88.746667c-13.653333-13.653333-13.653333-34.133333 0-47.786667 6.826667-20.48 27.306667-20.48 40.96-6.826666l129.706666 122.88c6.826667 6.826667 13.653333 13.653333 13.653334 27.306666 0 6.826667-6.826667 20.48-13.653334 27.306667l-129.706666 102.4c-6.826667 6.826667-13.653333 6.826667-20.48 6.826667zM471.586133 818.3808l226.986667-324.4032 55.978667 39.1168-226.986667 324.471467z" fill="#888888" p-id="21944"></path></svg>