<?xml version="1.0" standalone="no"?><!DOCTYPE svg PUBLIC "-//W3C//DTD SVG 1.1//EN" "http://www.w3.org/Graphics/SVG/1.1/DTD/svg11.dtd"><svg t="1725029421883" class="icon" viewBox="0 0 1024 1024" version="1.1" xmlns="http://www.w3.org/2000/svg" p-id="22422" xmlns:xlink="http://www.w3.org/1999/xlink" width="16" height="16"><path d="M896 192H128a32 32 0 0 0-32 32v576a32 32 0 0 0 32 32h768a32 32 0 0 0 32-32V224a32 32 0 0 0-32-32z m-32 576H160V256h704z" fill="#13227a" p-id="22423"></path><path d="M606.56 640H688a3.2 3.2 0 0 0 2.24-0.96l124.8-124.8a3.04 3.04 0 0 0 0-4.48l-124.8-124.8A3.2 3.2 0 0 0 688 384h-81.44a3.2 3.2 0 0 0-2.24 5.44L726.88 512l-122.56 122.56a3.2 3.2 0 0 0 2.24 5.44zM333.76 639.04A3.2 3.2 0 0 0 336 640h81.44a3.2 3.2 0 0 0 2.24-5.44L297.12 512l122.56-122.56a3.2 3.2 0 0 0-2.24-5.44H336a3.2 3.2 0 0 0-2.24 0.96l-124.8 124.8a3.04 3.04 0 0 0 0 4.48zM435.04 704h59.52a3.04 3.04 0 0 0 3.04-2.4l94.4-377.6a3.2 3.2 0 0 0-3.04-4h-59.52a3.04 3.04 0 0 0-3.04 2.4L432 700a3.2 3.2 0 0 0 3.04 4z" fill="#13227a" p-id="22424"></path></svg>