<svg t="1727079473385" class="icon" viewBox="0 0 1024 1024" version="1.1" xmlns="http://www.w3.org/2000/svg" p-id="3405" width="16" height="16"><path d="M575.428 897.188H158.91a32.099 32.099 0 0 1-32.1-32.099V158.911a32.099 32.099 0 0 1 32.1-32.1h545.683c17.719 0 32.1 14.38 32.1 32.1a32.099 32.099 0 0 0 64.197 0 96.297 96.297 0 0 0-96.297-96.298H158.911a96.297 96.297 0 0 0-96.298 96.298v706.178a96.297 96.297 0 0 0 96.298 96.298h416.517a32.099 32.099 0 0 0 0-64.199z" p-id="3406"></path><path d="M512 287.307a32.099 32.099 0 0 0-32.099-32.1H223.109a32.099 32.099 0 0 0 0 64.199H479.9a32.099 32.099 0 0 0 32.099-32.1zM479.901 479.9a32.099 32.099 0 0 0-32.1-32.1H223.11a32.099 32.099 0 0 0 0 64.199h224.693a32.099 32.099 0 0 0 32.099-32.099zM223.109 672.495a32.099 32.099 0 0 0 0 64.198h128.396a32.099 32.099 0 0 0 0-64.198H223.109z m641.98-48.148h-66.38c24.33-67.922 66.38-192.948 66.38-208.644a160.495 160.495 0 0 0-320.99 0c0 20.126 39.963 140.176 65.9 208.644h-65.9a96.297 96.297 0 0 0-96.297 96.297v32.099a96.297 96.297 0 0 0 96.297 96.297h320.99a96.297 96.297 0 0 0 96.298-96.297v-32.1a96.297 96.297 0 0 0-96.298-96.296z m-222.221-98.77c-19.42-55.948-34.57-105.252-34.57-109.874a96.297 96.297 0 1 1 192.593 0c0 6.323-52.353 158.954-70.553 208.644h-51.359c-8.025-20.223-22.47-59.448-36.111-98.77z m254.32 227.166a32.099 32.099 0 0 1-32.099 32.099H544.1a32.099 32.099 0 0 1-32.099-32.1v-32.098a32.099 32.099 0 0 1 32.099-32.1h320.99a32.099 32.099 0 0 1 32.1 32.1v32.099z" p-id="3407"></path></svg>