<svg t="1725289273730" class="icon" viewBox="0 0 1024 1024" version="1.1" xmlns="http://www.w3.org/2000/svg" p-id="4103" width="32" height="32"><path d="M512 1024C229.229714 1024 0 794.770286 0 512S229.229714 0 512 0s512 229.229714 512 512-229.229714 512-512 512z m341.156571-525.622857c0-20.736-7.387429-38.491429-22.144-53.248a73.380571 73.380571 0 0 0-53.906285-22.180572c-21.156571 0-39.369143 7.606857-54.564572 22.838858-55.003429-38.070857-120.777143-58.368-197.302857-60.891429l39.954286-179.529143 126.902857 28.562286c0 15.634286 5.485714 28.946286 16.493714 39.954286 10.971429 10.971429 24.283429 16.512 39.936 16.512 15.634286 0 29.074286-5.632 40.265143-16.841143a54.893714 54.893714 0 0 0 16.786286-40.246857c0-15.652571-5.577143-29.074286-16.786286-40.283429a54.948571 54.948571 0 0 0-40.265143-16.822857c-22.857143 0-39.771429 10.605714-50.761143 31.762286l-140.251428-31.085715c-7.990857-2.139429-13.293714 1.243429-15.817143 10.112L497.92 384.969143c-76.086857 2.962286-141.421714 23.460571-195.986286 61.531428-14.793143-15.652571-33.188571-23.478857-55.222857-23.478857a73.380571 73.380571 0 0 0-53.906286 22.198857c-14.811429 14.774857-22.162286 32.512-22.162285 53.248 0 14.774857 3.913143 28.288 11.776 40.594286a75.52 75.52 0 0 0 31.433143 27.922286 162.157714 162.157714 0 0 0-3.84 35.547428c0 60.032 29.604571 111.414857 88.832 154.112 59.209143 42.733714 130.468571 64.054857 213.778285 64.054858 83.748571 0 155.227429-21.321143 214.418286-64.054858 59.227429-42.697143 88.832-94.061714 88.832-154.112 0-13.513143-1.462857-25.563429-4.461714-36.114285a75.209143 75.209143 0 0 0 30.427428-27.611429 73.764571 73.764571 0 0 0 11.465143-40.265143l-0.182857-0.182857h0.036571z m-214.966857 190.902857c6.765714 6.765714 6.765714 13.293714 0 19.620571-26.203429 26.221714-68.278857 39.314286-126.281143 39.314286-57.965714 0-100.022857-13.092571-126.226285-39.296-6.765714-6.345143-6.765714-12.873143 0-19.657143a12.763429 12.763429 0 0 1 9.472-3.803428c3.803429 0 6.966857 1.28 9.508571 3.803428 20.297143 20.736 56.027429 31.085714 107.154286 31.085715 50.724571 0 86.491429-10.349714 107.190857-31.085715a12.818286 12.818286 0 0 1 9.508571-3.803428c3.785143 0 6.948571 1.28 9.508572 3.803428h0.164571z m-194.797714-114.816c0 15.652571-5.485714 28.964571-16.493714 39.936-10.971429 10.971429-24.301714 16.493714-39.936 16.493714a55.460571 55.460571 0 0 1-40.283429-16.493714 53.869714 53.869714 0 0 1-16.786286-39.936c0-16.073143 5.577143-29.622857 16.786286-40.594286a55.460571 55.460571 0 0 1 40.283429-16.493714 53.942857 53.942857 0 0 1 39.954285 16.822857c10.971429 11.190857 16.475429 24.612571 16.475429 40.265143z m250.569143 0c0 15.652571-5.613714 28.964571-16.822857 39.936a55.460571 55.460571 0 0 1-40.265143 16.493714 54.4 54.4 0 0 1-39.936-16.493714 54.418286 54.418286 0 0 1-16.493714-39.936c0-15.652571 5.485714-29.074286 16.493714-40.283429a53.796571 53.796571 0 0 1 39.936-16.768c15.634286 0 29.074286 5.449143 40.283428 16.457143 11.190857 10.971429 16.768 24.521143 16.768 40.594286h0.036572z" fill="#FF4500" p-id="4104"></path></svg>