<?xml version="1.0" standalone="no"?><!DOCTYPE svg PUBLIC "-//W3C//DTD SVG 1.1//EN" "http://www.w3.org/Graphics/SVG/1.1/DTD/svg11.dtd"><svg t="1725029166625" class="icon" viewBox="0 0 1024 1024" version="1.1" xmlns="http://www.w3.org/2000/svg" p-id="18490" xmlns:xlink="http://www.w3.org/1999/xlink" width="16" height="16"><path d="M66.048 567.808a367.616 332.8 90 1 0 665.6 0 367.616 332.8 90 1 0-665.6 0Z" fill="#C1463B" p-id="18491"></path><path d="M71.168 556.544a367.616 351.744 90 1 0 703.488 0 367.616 351.744 90 1 0-703.488 0Z" fill="#FD5C4E" p-id="18492"></path><path d="M703.488 780.8c-3.072 4.608-6.656 8.192-9.728 12.288-18.432 22.528-39.424 42.496-62.464 59.904-33.792 25.6-71.168 45.056-112.128 57.344-1.536 0.512-3.072 0.512-4.096 1.536H329.728c-12.8-2.56-24.576-7.68-36.352-12.288-14.848-6.144-29.184-12.8-43.008-20.992-19.968-11.776-38.912-24.576-55.808-39.936-8.192-7.168-16.896-14.848-24.576-23.04-14.848-15.36-28.672-31.744-40.96-49.664-13.312-18.944-25.6-39.424-35.328-60.416-7.168-15.36-13.824-30.72-19.456-46.592-9.216-26.112-15.872-52.736-19.968-80.384-1.536-11.264-2.56-22.016-3.584-33.28-1.536-17.92-1.536-35.328-1.536-53.248 0-9.728 1.024-19.456 2.048-29.184 1.536-13.312 3.072-26.624 5.632-39.936 3.072-16.384 7.168-32.768 11.776-49.152 4.608-14.848 9.728-29.696 15.872-44.544 11.776-27.648 26.112-54.272 43.52-79.36 8.192-11.776 16.896-23.04 26.112-33.792 8.192-9.216 16.384-17.92 25.088-26.112 8.192-7.168 15.872-14.848 24.064-21.504 11.264-9.216 23.04-16.896 34.816-24.576 11.264-7.168 23.04-13.824 35.328-19.456 11.776-5.632 23.552-10.24 35.84-14.848 18.432-6.656 36.864-11.264 55.808-14.336 12.288-2.048 24.576-3.584 36.864-4.096 10.24-0.512 19.968 0 30.208-0.512h4.096c1.024 0.512 2.048 0.512 3.072 0 1.536 0.512 3.072 0.512 4.608 0.512 15.36 1.024 30.72 3.072 45.568 6.656 21.504 4.608 41.984 10.752 61.952 19.456 25.088 10.752 48.64 23.552 70.656 39.424 23.04 16.384 44.032 35.84 62.976 56.832 20.992 23.552 38.912 48.64 53.76 76.288 19.456 35.328 33.28 72.192 42.496 111.104 5.632 23.04 9.728 46.08 11.264 69.632 0 2.048 0.512 4.096 0.512 6.144 1.024 3.072 0 4.608-2.56 6.144-3.072 2.048-6.144 4.608-9.728 6.656-6.144 4.096-12.8 8.704-19.456 12.288-1.024 0.512-2.048 1.536-3.584 1.536-5.632 0.512-10.752-0.512-16.384-0.512-6.144-0.512-12.288-0.512-18.944-1.024h-3.072c-3.584 0-4.608-1.024-5.12-4.608-1.024-6.144-1.024-12.288-1.536-18.432-1.024-11.264-2.048-22.016-4.096-32.768-2.048-11.264-4.608-23.04-7.68-34.304-4.608-17.408-10.752-33.792-18.432-50.176-7.68-16.896-16.384-33.28-27.136-49.152-9.216-13.824-19.456-27.136-31.232-39.424-21.504-23.04-45.568-41.984-72.704-57.344-24.064-13.312-49.664-23.04-76.8-28.16-15.36-3.072-30.72-4.608-46.592-5.12-25.6-0.512-50.688 3.072-75.264 9.216-13.824 3.584-26.624 8.704-39.936 14.848-20.992 9.728-40.448 22.016-58.368 36.352-9.728 7.68-19.456 16.384-28.16 25.6-16.384 16.896-30.72 35.84-42.496 55.808-15.872 26.112-27.648 53.76-35.84 82.944-5.632 19.456-9.728 39.424-11.776 59.392-1.024 9.216-2.048 18.944-2.048 28.16 0 3.072-0.512 6.144-0.512 9.216 0.512 19.456 1.536 38.912 4.608 57.856 4.608 30.72 13.312 60.416 26.112 89.088 9.216 20.992 20.48 40.448 33.792 58.88 0.512 0.512 1.024 1.536 1.536 2.048 3.584 5.632 7.68 10.24 11.776 15.36 7.68 9.216 15.872 17.92 24.576 26.624 13.824 13.312 29.184 25.088 45.568 35.328 8.704 5.12 17.408 10.752 26.624 14.848l7.68 3.072c8.192 3.584 16.384 6.656 24.576 9.728 18.432 6.656 37.888 10.24 57.344 12.8 11.776 1.536 23.552 1.536 35.328 1.024 24.576-1.024 48.64-5.12 72.192-12.8 29.184-9.728 55.808-23.552 80.384-41.984 13.824-10.24 26.624-22.016 38.4-34.304 4.608-4.608 8.704-10.24 13.312-14.848 1.024-0.512 1.024-2.048 2.048-2.048 4.096 5.12 9.216 9.216 13.824 13.312 3.584 3.584 7.68 7.168 11.264 10.752 10.24 9.728 20.48 19.456 31.744 29.184 2.56 4.096 4.608 4.608 7.168 3.072z" fill="#FD5C4E" p-id="18493"></path><path d="M435.2 91.648h-23.552c-10.752 0-21.504 1.024-32.256 2.56-16.384 2.048-32.256 5.12-47.616 9.216-14.848 4.096-28.672 9.216-42.496 14.848-7.68 3.072-14.848 6.656-22.016 10.24-19.968 10.24-38.912 22.528-57.344 36.352-10.752 8.192-20.48 16.896-30.208 26.112-7.168 6.656-13.824 13.824-20.48 20.48-6.656 7.168-12.8 14.848-18.432 22.528-8.704 11.264-16.896 23.04-24.576 34.816-10.24 16.384-19.456 33.792-27.136 51.712-7.168 15.36-13.312 31.232-18.432 47.616-5.12 16.384-9.216 32.768-12.8 49.664-2.048 10.752-4.096 22.016-5.12 32.768-1.024 8.704-1.536 17.92-2.56 26.624-1.024 15.36-1.024 31.232-1.024 46.592 0 9.216 1.024 18.432 2.048 27.136l3.072 26.112c1.024 9.728 3.584 19.456 5.632 29.184 3.584 15.36 7.68 30.72 12.288 46.08 4.096 11.776 8.192 23.552 13.312 34.816 5.12 11.776 10.752 23.552 16.896 35.328 9.216 17.408 19.456 33.28 30.72 49.152 5.632 8.192 11.776 15.36 17.92 23.04 2.56 3.072 5.632 6.656 8.192 9.728 6.144 6.656 12.288 12.8 18.432 18.944 20.48 19.968 43.008 37.376 68.096 52.224 9.216 5.632 18.944 10.752 28.672 15.36 11.776 5.632 23.552 10.752 35.84 14.848 6.144 2.048 12.8 4.096 18.944 6.656h-47.104c-6.656-1.536-12.8-4.096-18.944-6.144-1.024-0.512-2.56-1.024-3.584-1.024-7.168-2.56-13.824-5.632-20.992-8.704-19.456-8.704-37.376-19.968-55.296-32.256-3.072-2.56-6.656-5.12-10.24-7.68-4.096-2.56-7.68-5.632-11.264-8.704-5.632-3.584-10.24-8.192-14.848-12.8-7.168-6.144-13.824-13.312-20.48-19.968-15.36-15.36-28.672-32.256-40.96-49.664-7.68-10.752-14.848-21.504-20.992-32.768-3.584-6.656-7.168-13.312-10.752-20.48-9.216-19.456-18.432-38.912-24.576-59.392-5.632-17.408-10.752-34.816-14.336-52.736 0-1.024-0.512-2.048-0.512-3.072-0.512-4.608-1.536-9.216-2.048-14.336-1.536-8.192-2.56-16.384-3.072-24.576-0.512-7.168-1.024-14.848-2.048-22.528-0.512-3.072-0.512-5.632-0.512-8.704 0-9.216-1.024-18.944 0-28.16 0.512-5.632 0.512-11.264 0.512-16.896 0.512-7.68 1.024-15.36 2.048-23.552 2.048-18.432 4.608-36.864 9.216-55.296 1.536-7.68 3.584-14.848 5.632-22.528v-1.024c2.56-5.632 4.096-11.776 5.632-17.408 2.56-8.192 5.632-16.896 8.704-25.088 1.536-4.096 3.072-8.192 4.608-11.776 2.56-6.656 5.632-12.8 8.704-19.456 7.68-15.872 15.872-30.72 25.6-45.568 6.656-10.24 13.824-20.48 21.504-29.696 7.68-10.24 15.872-19.968 24.576-28.672 5.12-5.12 10.24-10.752 15.872-15.872 7.68-7.168 15.872-14.336 24.064-20.992 15.36-12.288 32.256-23.552 49.664-33.28 3.072-2.048 6.144-3.584 9.728-5.12 7.68-4.096 15.36-7.68 23.552-10.752 13.312-5.632 27.136-10.752 40.96-14.848 10.752-3.072 22.016-5.632 33.28-8.192 13.824-2.56 27.648-4.608 41.984-5.632 14.848-1.024 29.696-1.024 44.544 0 8.704 0.512 17.408 1.536 26.112 2.56 0.512 1.536 2.048 1.024 2.048 2.048z" fill="#C1463B" p-id="18494"></path><path d="M714.752 497.664c1.024 4.096 1.024 4.096 5.632 4.096 10.752 0.512 20.992 0.512 31.744 1.536h6.144c0.512 1.024 1.536 1.024 2.56 1.536 8.192 0.512 16.384 0.512 24.064 1.024 9.216 0.512 18.432 0.512 27.648 1.536 4.096 0.512 8.192 0.512 12.288 0.512 10.24 0.512 19.968 0.512 30.208 1.536 13.824 0.512 27.648 1.024 41.984 2.048 5.12 0.512 10.24 0.512 15.872 0.512 12.288 0.512 24.064 0.512 36.352 1.536 5.632 0.512 10.752 0 16.384 0.512h10.24c2.56 1.024 5.12 1.024 7.168 1.024 4.096 0 8.704 0 12.8 1.024 9.728 2.56 15.872 11.264 14.848 22.016-1.024 9.216-9.216 16.896-18.944 16.896-3.584 0-7.168 0.512-10.752-0.512 1.024-1.024 2.56-1.024 3.584-1.024 3.584 0 7.168 0 10.752-0.512 12.8-3.072 17.92-17.92 10.24-28.16v6.144c0.512 4.096-2.048 6.656-5.12 8.704-8.704 5.12-17.92 7.168-27.648 6.144-5.632-0.512-10.752-0.512-16.384-1.024-10.24-0.512-19.968-1.024-30.208-1.536-9.216-0.512-17.92-0.512-27.136-1.536-4.096-0.512-8.704-0.512-12.8-0.512-10.24 0-20.48-1.024-30.72-1.024-12.288-0.512-25.088-1.024-37.376-1.536-12.288-0.512-24.064-1.024-36.352-1.536-11.776-0.512-23.04-1.024-34.816-1.536-11.776-0.512-23.04-1.024-34.816-1.536-12.8-0.512-25.088-1.024-37.888-1.536-11.776-0.512-24.064-1.024-35.84-1.536-13.312-0.512-26.624-1.536-39.424-2.048-9.728-0.512-19.968-1.024-29.696-1.536-9.728-0.512-19.456-0.512-28.672-1.536-4.608-0.512-8.704-0.512-13.312-0.512l-30.72-1.536c-13.824-0.512-27.136-1.024-40.96-2.048-4.096-0.512-8.192 0-12.288-0.512-9.728-1.024-17.408-5.12-24.064-12.8-0.512-1.536-0.512-3.072 0-4.608 1.536-8.192 8.192-14.848 16.384-16.384 3.072-0.512 6.144-1.024 9.216-0.512 4.096 0.512 8.192 0.512 12.288 0.512l27.648 1.536c5.632 0 11.264 0.512 16.896 1.024 12.8 0.512 25.6 1.536 37.888 2.048 6.144 0.512 12.8 0.512 18.944 1.024 1.536 0 3.072-0.512 4.096-2.048 2.56 3.072 6.144 2.048 9.216 2.56 12.8 1.024 25.088 1.024 37.888 2.048 4.608 0.512 9.216 0.512 13.312 0.512l29.184 1.536c1.536 0 2.56-0.512 3.584-1.536 3.584 2.56 7.168 2.048 11.264 2.56l29.184 1.536c4.608 0.512 8.704 0 13.312 0.512 2.048 0.512 4.096 0 5.12-3.072z" fill="#EFB35D" p-id="18495"></path><path d="M788.48 580.096c-3.584 22.528-8.704 45.056-15.36 67.072-10.752 34.816-25.6 67.584-45.056 98.816-3.072 5.12-6.144 10.752-9.728 15.36-3.072-4.096-6.656-7.168-10.24-10.24-9.216-8.192-17.92-16.896-26.624-26.112l-18.944-18.944c-1.024-1.024-2.56-2.56-4.096-3.072 0-1.024 0.512-1.536 1.024-2.048 7.168-11.776 14.336-23.04 19.968-35.328 11.776-24.576 20.992-50.176 27.136-76.8 3.072-13.312 5.12-27.136 6.656-40.96 0-2.048-0.512-3.584 1.024-5.632 1.536-1.024 3.584-1.024 5.632-0.512 6.144 0.512 11.776 1.024 17.92 1.024 3.584 0 7.168 0.512 10.752 1.024l3.072 1.536c11.776 8.704 23.04 17.92 33.792 27.648 0.512 0.512 1.024 1.024 1.536 1.024 1.536 1.024 2.56 3.072 1.536 6.144z" fill="#FE5D4F" p-id="18496"></path><path d="M780.288 490.496c3.072-2.048 6.144-4.608 9.216-6.656 2.048-1.536 4.096-3.072 3.584-6.144 0.512 0.512 0.512 1.536 0.512 2.048 1.024 0.512 1.536 0 2.048-0.512 8.192-6.144 16.896-12.8 24.576-19.456 5.12-4.096 9.728-8.704 14.848-13.312 1.024-1.024 2.048-1.024 3.072-1.024 8.704 0 17.408 0 25.6 0.512 1.024 1.024 0 2.048-0.512 2.56-2.56 4.608-5.12 8.704-6.656 13.824 0 0.512-0.512 1.024-0.512 1.536v0.512c-0.512 0.512-0.512 1.024 0 1.024h0.512l1.024-1.024c2.56-2.048 4.608-4.096 6.656-6.656 4.096-3.584 7.168-7.68 10.752-11.776 1.024-0.512 2.048-0.512 3.072-0.512 11.776 0 23.552 0.512 35.328 1.024 2.048 0.512 1.024 1.536 0.512 2.56-1.536 4.608-3.072 9.216-5.632 13.312 0 0.512-0.512 1.024-0.512 1.024 0-0.512 0-1.024 0.512-1.536 1.536-1.536 3.584-3.072 4.608-4.608 1.024-1.024 2.048-1.536 2.56-2.56l0.512-0.512c1.536-2.048 3.072-4.096 5.12-6.144 1.024-1.024 2.048-1.536 3.584-1.536 14.848 0 29.696 1.024 44.544 1.024 1.024 0 1.536 0 2.048 1.024v1.024c-0.512 0.512-1.024 0.512-1.536 0-2.048-0.512-3.072 0.512-4.608 2.048-3.072 5.12-6.144 10.24-8.704 15.36 0 0 0.512-1.024 1.024-1.024 2.048 0 2.56-1.536 3.584-3.072 1.536-1.536 3.072-2.56 4.608-4.096l1.024-1.024c2.048-1.536 4.096-3.584 6.144-6.144 1.024-0.512 1.536-1.536 2.56-2.048 1.024-1.536 2.56-2.048 4.608-1.536 4.096 1.024 7.68 0.512 11.776 0.512 8.704 0 16.896 0.512 25.6 0.512 3.072 0 3.072 0 1.536 2.56-0.512 0.512-0.512 1.024-1.024 1.536-1.024 0.512-1.536 1.536-2.048 2.56-6.144 7.168-12.288 14.336-18.432 22.016l-1.536 1.536c-10.24 6.144-20.48 11.776-30.72 17.408-3.584 2.048-7.168 1.024-10.752 1.024-2.048 0-4.096-0.512-6.144-0.512-16.384 0-33.28-1.024-49.664-1.024-12.288 0-24.576-0.512-36.864-1.024-13.312-0.512-27.136-0.512-40.448-1.024-12.288-0.512-24.064-1.024-36.352-1.024-2.048 0-3.584 0-5.632-0.512-0.512-0.512-0.512-1.024 1.024-2.048z" fill="#FEEBA6" p-id="18497"></path><path d="M748.032 543.744c-2.56-1.024-5.632-0.512-8.192-1.024-8.192-0.512-15.872-0.512-24.064-1.024-1.024 0-2.048 0-3.072 0.512-5.12 0.512-10.24 0-15.36-0.512s-9.728-0.512-14.848-0.512c-9.728-0.512-18.944-1.024-28.672-1.024l-32.256-1.536c-12.288-0.512-24.576-1.024-36.864-2.048-8.192-0.512-16.384-1.024-24.576-1.024-12.288-0.512-25.088-1.536-37.376-2.048-8.192-0.512-16.384-1.024-24.064-1.024-6.144-0.512-12.8-1.024-18.944-1.024l-26.112-1.536c-4.608-0.512-9.216-0.512-13.824-0.512-5.632 0-10.752-1.536-15.36-5.632-3.072-3.584-6.144-7.168-6.656-12.288 0-1.024-0.512-2.048 0.512-2.56 3.072 2.56 6.144 5.12 9.216 7.168 6.656 4.096 14.336 5.12 22.016 5.12 9.728 0 19.456 1.024 28.672 1.024 7.68 0 15.872 0.512 23.552 1.024 8.192 0.512 16.896 0.512 25.088 1.024 7.68 0.512 15.872 0.512 23.552 1.024l35.328 1.536c7.168 0.512 14.336 0.512 21.504 1.024l38.4 1.536c7.68 0 14.848 0.512 22.528 1.024 12.8 0.512 25.6 1.024 38.912 1.536 7.68 0.512 15.36 0.512 23.04 1.024 11.776 0.512 23.552 1.024 34.816 1.536 7.68 0.512 15.36 0.512 23.04 1.024 12.8 0.512 25.088 1.024 37.888 1.536 8.192 0.512 16.384 0.512 24.064 1.024l36.864 1.536c7.168 0.512 14.848 0.512 22.016 1.024 8.192 0.512 15.872 0.512 24.064 1.024 7.68 0.512 15.36 0.512 23.552 1.024 7.68 0.512 15.36 0.512 23.04 1.024 4.608 0 8.704-0.512 12.8-2.56 3.584-1.536 7.68-3.072 10.752-6.144 1.024-1.024 1.536-2.048 1.536-3.072 0-3.584 0.512-7.168-0.512-11.264 4.096 3.584 5.632 7.68 6.144 12.288 0.512 10.752-8.192 19.968-19.456 19.968h-10.24c-4.608 0-9.728-0.512-14.336-0.512-11.264-2.56-22.016-2.56-33.28-3.072l-27.648-1.536c-8.192-0.512-15.872-1.024-24.064-1.024-7.68 0-15.36-1.024-23.04-1.024-4.096 0-8.192-0.512-12.288-0.512-3.584-1.024-7.68-0.512-11.776-0.512-5.632-0.512-11.264-0.512-16.896-1.024-8.704-0.512-17.92-0.512-26.624-1.536-4.096-0.512-8.704-0.512-12.8-0.512-6.144 0-12.288-0.512-18.432-1.024-3.072 0-6.144-0.512-9.216-0.512-1.024 2.048-2.048 2.048-2.048 3.584z" fill="#DB9A3C" p-id="18498"></path><path d="M657.92 702.464c1.536 0 2.048 1.024 3.072 2.048 11.264 11.264 22.016 22.528 33.28 33.28l21.504 19.968c1.024 1.024 2.048 1.536 1.536 3.072-4.608 7.168-9.216 13.824-14.848 19.968-3.584 2.56-3.072 2.56-7.168-0.512-11.264-9.216-22.016-19.456-32.768-29.696-6.144-5.632-12.288-11.264-18.432-17.408-1.536-1.536-2.56-2.56-4.096-3.584-1.024-0.512-1.536-1.536-1.024-2.56-0.512-1.024 0.512-1.536 1.024-2.56 5.632-6.656 10.752-13.312 15.36-20.48 1.024-1.024 1.536-2.048 2.56-1.536z" fill="#E13D32" p-id="18499"></path><path d="M843.264 591.872l-1.536-1.536c-1.024-0.512-1.536-1.024-1.024-2.56 0.512-0.512 1.536-0.512 2.048-0.512 7.168 0.512 14.336 1.024 22.016 1.536 7.168 0.512 14.336 1.024 21.504 1.024l26.112 1.536c8.192 0.512 15.872 1.024 24.064 1.536h1.024c2.56 3.072 4.096 6.656 5.632 9.728l4.608 10.752c1.536 3.072 3.072 3.584 6.656 2.56 0.512 0.512 1.024 1.024 0.512 2.048s-1.536 1.024-2.048 0.512c-3.584-0.512-7.168-0.512-11.264-1.024-4.608-0.512-9.728-0.512-14.336-1.024-6.656-0.512-13.312-0.512-19.968-1.536-1.024 0-2.048-0.512-2.56-1.536-2.048-4.096-5.12-7.168-7.68-10.752-1.024-2.048-2.56-4.096-4.096-6.144-0.512-1.024-1.024-2.048-2.048-3.072l6.144 16.896c0.512 2.048 2.048 2.048 4.096 1.536 1.024 2.048 0.512 2.56-1.536 2.56-11.776-1.024-24.064-1.536-35.84-3.072h-2.56c-2.56 0-4.096-1.024-5.12-3.072-1.536-2.56-3.584-5.12-5.12-7.68-1.536-2.56-3.584-4.608-5.632-7.168-0.512 0.512-1.024-0.512-2.048-1.536z" fill="#FEDA6E" p-id="18500"></path><path d="M748.032 543.744c0-0.512-0.512-0.512-0.512-1.024-0.512-0.512-1.536-0.512-1.024-1.536 0-0.512 1.024-0.512 1.536-0.512 2.56 0 5.632-0.512 8.192 0 4.608 0.512 9.216 0.512 13.824 1.024 6.656 0.512 12.8 0.512 19.456 0.512l33.792 1.536c6.656 0.512 13.312 0.512 19.968 1.024 1.024 0 2.048 0 2.56 0.512-3.584 1.536-7.168 1.024-10.752 0.512-4.608-0.512-9.728-0.512-14.336-1.024-14.336-0.512-28.672-1.536-43.008-2.048-8.192 0-16.384-1.024-24.576-1.024 4.608 2.56 9.216 5.12 14.336 7.68 21.504 10.752 42.496 23.04 63.488 34.816 1.536 0.512 2.56 1.536 4.096 2.048 0.512 0 0.512 0.512 1.024 0.512 3.072 5.632 6.656 11.264 9.216 16.896 0.512 1.024 1.024 2.048 2.048 3.072 1.024 1.536 2.048 2.048 3.584 1.024 1.024 1.024 1.536 2.048-1.024 2.048-8.192-0.512-15.872-1.024-24.064-2.048-1.024 0-2.048-0.512-2.56 0-2.56 0-4.096-1.024-5.632-2.56-6.144-7.68-13.312-14.336-19.968-20.992-2.048-2.048-4.096-3.584-6.144-5.632-1.536-1.536-2.048-1.024-2.56 0.512 0.512-3.072-1.536-4.608-3.584-6.656-6.656-6.144-13.312-11.776-20.48-17.92-6.144-3.072-11.264-7.168-16.896-10.752zM1001.472 614.912c1.024 2.048 1.536 3.584 2.56 5.632 0.512 1.536-0.512 1.536-1.536 1.536-3.584 0-7.168-0.512-10.24-0.512-6.144-0.512-12.8-1.024-18.944-1.536-3.072 0-6.656-0.512-9.728-0.512-1.536 0-2.56-0.512-3.584-2.048-2.048-2.56-3.584-4.608-5.632-6.656-2.048-2.048-3.584-4.096-5.632-6.144-1.536-0.512-2.048-1.536-2.56-3.072-0.512-1.024-1.024-1.536-2.048-1.536l-3.072-4.608c-0.512-0.512-0.512-1.536 0.512-2.048 5.12-1.024 10.752 0.512 15.872 0.512s10.24 0.512 15.36 1.024c4.608 0.512 9.216 0.512 13.824 0.512 0.512 0 1.024 0.512 1.024 0.512 4.608 5.632 8.704 11.776 12.8 17.92 0 0.512 0.512 0.512 0.512 1.024 0.512 0.512 0.512 0 0.512 0z" fill="#FEDA6E" p-id="18501"></path><path d="M987.648 596.992l-0.512-0.512c-1.536-0.512-2.048-2.048-3.072-3.072-8.704-12.288-17.408-24.576-25.6-36.864-2.048-2.56-4.096-3.584-7.168-4.096l-24.576-1.536c-3.584 0-7.168-0.512-10.752-0.512-12.288-0.512-24.576-1.536-36.864-2.048-6.144 0-12.288-0.512-18.432-1.024-1.024 0-2.048 0-2.56-1.024 12.288 0 24.064 1.024 36.352 1.536 3.584 0 7.168 0 10.752 0.512 8.192 0.512 15.872 0.512 24.064 1.024 11.264 1.024 22.528 1.024 33.28 2.56 1.536 0 2.56 0.512 3.584 1.536 0.512 3.072 2.56 5.12 4.096 7.68 7.68 11.776 15.872 22.528 22.528 34.816 0 0.512 0.512 1.024 0.512 1.024-2.048 1.024-4.096 1.024-5.632 0z" fill="#E4CF83" p-id="18502"></path><path d="M997.376 478.72l1.024-1.024c2.048-2.048 4.608-3.072 7.168-4.608 0.512-0.512 2.048-1.536 2.048 0.512-5.632 8.192-11.776 15.36-17.92 23.04-4.608 5.632-9.216 11.264-13.312 16.896-0.512 1.024-1.536 1.024-2.56 1.024h-7.68c1.024-3.072 3.072-4.608 5.12-6.656 7.168-8.704 14.336-16.896 22.016-25.6 0.512-1.024 2.56-2.048 4.096-3.584z" fill="#E4C056" p-id="18503"></path><path d="M897.536 602.112c2.56 3.072 5.12 6.656 7.168 10.24 1.536 2.56 4.096 2.048 6.144 2.56 9.216 0.512 17.92 1.024 27.136 2.048 4.608 0.512 9.728 0.512 14.336 1.536 1.024 0 2.048 0.512 2.56-0.512 0.512-0.512 0-1.024-0.512-1.536-1.024-0.512-1.536-1.536-1.536-2.56 0-0.512 0-0.512 0.512-0.512 1.024 1.536 2.048 2.56 2.56 4.096 1.024 1.536 0 2.048-1.536 2.048-4.096 0-8.192 0-11.776-0.512-3.584-0.512-7.68-0.512-11.776-1.024-6.656-0.512-12.8-1.024-19.456-1.024-4.096 0-7.68-1.536-8.704-5.632-0.512-1.024-1.024-2.56-2.56-3.072 0 2.048 1.536 3.584 2.048 5.12 1.024 1.536 0.512 2.56-1.536 2.56l-19.968-1.536c-6.144-0.512-11.776-1.024-17.92-1.024-3.072 0-5.632-1.024-7.168-3.584-1.536-2.56-3.584-4.608-4.608-7.168 2.56 2.048 4.096 5.12 5.632 7.68 1.024 1.536 2.048 2.048 4.096 2.048 12.8 1.024 26.112 1.536 38.912 3.072 0.512 0 1.536 0.512 1.536-0.512 0.512-0.512 0-1.024-0.512-1.536-2.048-2.56-3.584-5.632-5.12-9.216 0.512-1.536 0.512-3.072 2.048-2.048z" fill="#FDF8EA" p-id="18504"></path><path d="M435.2 91.648c-4.096-1.024-8.704-1.536-12.8-2.048-17.92-2.048-35.328-2.048-53.248-1.536-7.168 0-14.336 1.536-21.504 2.048-9.728 0.512-18.944 2.56-28.16 4.096-0.512 0.512-1.024 0.512-2.048 0 6.656-1.536 13.824-2.56 20.992-3.584 17.408-2.56 34.816-3.584 52.736-3.072 16.896 0.512 33.792 1.536 50.176 4.608 0.512 0 1.024 0.512 1.536 0.512-1.536 0.512-3.584 0-5.12-0.512-0.512 0-1.536 0-2.56-0.512z" fill="#D1766E" p-id="18505"></path><path d="M1007.616 474.112c-0.512-1.536-1.024-0.512-1.536 0-2.56 1.536-4.608 3.072-7.68 4.096 2.048-3.072 4.608-5.632 7.168-8.704 3.584-4.608 7.68-8.704 11.264-12.8 2.048 1.024 0 2.048 0 2.56-1.024 1.024-1.536 2.56-2.048 4.096-2.048 3.584-4.608 7.168-7.168 10.752z" fill="#E5D084" p-id="18506"></path><path d="M850.432 608.768c-0.512 2.56-2.048 1.536-3.072 1.024-1.024-0.512-1.536-1.536-2.048-2.048-3.584-6.656-6.656-12.8-10.24-19.456 0.512-0.512 1.536-0.512 2.048-0.512 0 0 0.512 0 0.512 0.512 0.512 0.512 1.024 1.536 1.536 2.048 0.512 0.512 1.024 1.024 1.024 1.536 1.024 1.536 1.536 3.072 2.56 4.608 2.56 4.096 5.632 8.192 7.68 12.288z" fill="#E6BD50" p-id="18507"></path><path d="M987.648 596.992c2.048 0 4.096-0.512 6.144 0.512 3.072 5.632 6.144 11.264 8.192 17.408v2.048c-5.632-7.168-10.24-13.312-14.336-19.968z" fill="#E5C158" p-id="18508"></path><path d="M863.744 446.464c-8.704 0-16.896-0.512-25.6-0.512-1.536 0-2.56 0.512-3.584 1.536-10.752 10.24-22.016 19.456-33.792 28.16l-6.144 4.608c-0.512 0.512-1.024 1.024-1.536-0.512 3.584-2.048 6.656-4.608 10.24-7.168 6.144-4.608 11.776-9.216 17.408-13.824 4.608-3.584 8.704-7.68 13.312-11.776 1.024-1.024 2.048-1.536 3.584-1.536h18.944c2.56 0 4.608 0.512 7.168 0.512 0.512 0 0.512 0 0 0.512 0.512 0 0.512 0 0 0z" fill="#FEF7DD" p-id="18509"></path><path d="M971.776 449.536c0-1.024-1.024-1.024-1.536-1.024h-4.608c-11.264 0-22.016-1.024-33.28-0.512-2.048 0-3.584-0.512-5.632-0.512-2.56 0-4.608 1.024-5.632 3.072-1.024 1.536-2.048 3.584-4.096 4.608 1.536-3.072 3.584-5.12 5.632-7.68 0.512-0.512 1.536-0.512 2.56-0.512 7.168 0 14.336-0.512 20.992 0 8.192 0.512 16.384 0 24.576 0.512 2.56 0 3.072 0.512 1.536 2.56-0.512 0-0.512 0-0.512-0.512zM914.432 447.488c-9.728-0.512-19.456-0.512-29.184-0.512-3.584 0-6.656-0.512-10.24-0.512 0.512-1.024 1.536-0.512 2.048-0.512 5.632 0 11.776-0.512 17.408 0 7.68 0.512 14.848 0 22.528 0.512 2.048 0 2.56 1.024 1.536 2.56-1.536 2.56-3.072 5.12-5.12 7.68 1.024 0 1.536-1.024 2.048-1.024 0 1.536-1.024 2.048-2.048 2.56-1.536 2.048-1.536 2.048-2.56 0.512 1.536-3.584 4.096-7.168 6.144-10.752-0.512-1.024-1.536 0-2.56-0.512z" fill="#FDFAF1" p-id="18510"></path><path d="M856.064 464.384c-1.024-0.512-0.512-1.024 0-2.048 2.048-5.632 5.12-10.752 8.192-15.872 0.512-0.512 1.024-0.512 1.536-0.512 2.048 0 2.048 0 1.024 2.56-4.096 5.12-7.168 10.752-10.752 15.872z" fill="#E6CC7A" p-id="18511"></path><path d="M952.832 612.864v0.512c-0.512 0-1.024 0-1.024-0.512-2.048-3.584-5.12-6.656-6.144-10.752 0-0.512 0-1.024 1.024-1.024 0.512 1.024 1.536 2.048 2.048 3.072-1.024 0.512 0 1.024 0 1.536 1.536 2.56 2.56 5.12 4.096 7.168z" fill="#FBF3DA" p-id="18512"></path><path d="M966.656 459.264c-1.024 2.048-3.072 2.56-4.096 4.096-1.024 0-1.024-0.512-1.024-1.024 0.512-2.048 1.536-4.096 4.096-5.12h0.512c0 1.024-0.512 1.536-1.024 2.56 0.512 0 1.024 0 1.536-0.512z" fill="#FDF9EE" p-id="18513"></path><path d="M971.776 449.536v0.512c-2.048 2.56-3.072 5.632-6.144 7.68-0.512-1.024 0.512-2.048 1.024-2.56 1.536-2.048 2.048-4.096 4.608-5.632h0.512z" fill="#FDF9EE" p-id="18514"></path><path d="M864.256 458.24c-1.536 2.56-3.584 5.12-6.656 6.656 2.048-2.56 4.096-4.608 6.656-6.656z" fill="#FAF4E0" p-id="18515"></path><path d="M973.824 452.608c-1.536 2.56-3.584 4.608-6.144 6.144 2.048-2.56 4.096-4.608 6.144-6.144z" fill="#FDF9EE" p-id="18516"></path><path d="M843.264 595.968c-1.536-1.024-1.536-3.072-2.56-4.608-1.024-2.048-1.024-2.048 0-2.56 0.512 0.512 0.512 1.024 1.024 1.536-0.512 2.048 2.048 3.584 1.536 5.632z" fill="#FEF3D0" p-id="18517"></path><path d="M948.224 604.16c2.56 1.536 4.096 3.584 5.632 6.144-2.56-1.536-4.096-3.584-5.632-6.144z" fill="#FBF3DA" p-id="18518"></path><path d="M866.816 448.512c1.024-3.072-1.536-1.536-2.56-2.048v-0.512h2.048c0.512 0 1.536-0.512 2.048 0.512 0 1.024-1.024 1.536-1.536 2.048z" fill="#FEEBA6" p-id="18519"></path><path d="M856.576 465.92c-0.512 0.512-0.512 1.536-1.536 1.536-0.512-1.024 1.024-1.536 1.536-2.56-0.512 0.512-0.512 0.512 0 1.024z" fill="#FAF4E0" p-id="18520"></path><path d="M843.264 591.872c1.024 0.512 2.048 1.536 2.048 2.56-0.512-0.512-1.536-1.024-2.048-2.56z" fill="#FEF3D0" p-id="18521"></path><path d="M714.752 497.664c0 3.584 0 4.096-4.096 3.584-15.872-0.512-31.744-1.536-47.616-2.048-1.024 0-2.56-0.512-3.584-0.512-2.048 0.512-3.072-0.512-3.584-2.56-1.024-0.512-1.024-1.536-1.024-2.048-1.024-20.48-4.096-40.448-9.728-59.904-4.096-14.336-9.216-28.672-15.36-41.984-7.68-16.896-16.896-32.768-28.16-47.616-9.728-12.8-20.48-24.576-32.256-35.328-11.264-10.24-23.04-18.944-35.84-26.624-20.992-12.288-43.008-20.992-67.072-26.112-13.824-3.072-27.648-4.096-41.984-4.096-30.208 0-58.88 6.656-86.528 19.456-19.456 9.216-36.864 20.48-52.736 34.816-21.504 18.944-39.424 40.96-53.248 66.048-10.752 19.456-19.456 39.936-25.088 61.952-3.072 12.288-5.632 24.064-7.168 36.352-1.024 7.68-1.536 15.36-2.048 23.04-0.512 6.144-0.512 12.288-0.512 18.432 0.512 24.064 3.584 48.128 10.24 71.68 5.12 19.456 12.8 37.888 22.016 55.808 9.216 16.896 19.968 32.768 32.256 47.616 14.336 16.384 30.72 30.72 48.64 43.008 22.528 14.848 47.104 25.088 73.728 30.72 17.408 3.584 35.328 5.12 53.248 4.096 20.48-1.024 39.936-5.12 59.392-12.288 20.992-7.68 39.936-18.432 57.856-31.744 12.8-9.728 25.088-20.992 35.328-33.792 0.512-0.512 1.024-1.536 2.048-2.048 1.536-1.024 2.56 0 3.584 1.024 4.608 3.584 8.192 7.68 12.288 11.264 8.192 8.192 16.896 15.36 25.088 23.552 1.536 1.536 3.072 2.56 4.096 3.584 1.024 1.024 1.536 2.048 0 3.584-7.68 9.216-15.872 17.92-24.576 26.112-17.92 17.408-37.888 32.256-59.904 44.032-19.968 11.264-40.448 19.456-62.464 25.088-14.336 3.584-29.184 6.656-44.032 7.68-10.24 1.024-19.968 1.024-30.208 1.024-30.72-1.024-60.416-7.168-89.088-18.432-4.096-1.536-8.192-3.584-12.8-5.632-21.504-9.728-40.96-22.016-59.392-36.352-11.776-9.216-23.04-19.968-33.28-30.72-8.192-8.704-15.872-18.432-23.04-28.16-13.312-17.92-24.576-37.376-33.792-57.856-9.728-21.504-17.408-44.032-23.04-67.072-3.584-15.36-6.144-30.72-7.68-46.08-1.024-10.752-1.536-20.992-2.048-31.744 0-20.992 1.536-41.472 4.608-61.952 4.096-24.576 10.24-49.152 19.456-72.192 12.8-32.768 30.208-62.976 52.224-90.112 22.528-27.136 48.64-50.176 79.36-68.096 23.04-13.312 47.104-23.04 72.704-29.184 13.312-3.072 27.136-5.632 40.96-6.656 14.336-1.024 28.16-1.024 42.496 0 28.672 2.56 55.808 9.728 82.432 20.992 23.552 10.24 45.568 23.552 65.536 39.936 17.408 13.824 32.768 29.696 46.592 47.104 15.872 19.968 29.184 41.472 39.936 64.512 12.288 25.6 20.992 52.736 26.624 80.896 3.584 17.92 6.144 35.84 6.656 54.272 3.072 3.584 3.584 5.632 3.584 7.68z" fill="#FED7D3" p-id="18522"></path><path d="M997.376 478.72c-4.608 5.632-9.728 11.264-14.336 16.896-5.632 6.656-11.264 12.8-16.896 19.456-10.24-0.512-20.48-1.024-30.72-1.024-9.216-0.512-17.92-0.512-27.136-1.024-11.776-0.512-23.04-1.024-34.816-1.536-7.68-0.512-14.848-0.512-22.528-1.024-12.288-0.512-25.088-1.024-37.376-1.536-7.168-0.512-14.848-0.512-22.016-1.024-10.752-0.512-21.504-1.024-31.744-1.536-0.512 0-1.536 0-1.536-0.512-0.512-1.024 1.024-1.024 1.024-1.536 6.656-4.096 13.312-8.192 19.968-12.8 0.512-0.512 1.024-1.024 1.536-1.024 0 0.512-2.048 1.536 0 1.536s4.096 0.512 6.144 0.512c10.752 0 21.504 0 31.744 0.512 6.144 0.512 12.8 0 18.944 0.512 13.312 0.512 26.112 0.512 39.424 1.024 6.144 0 12.288 0 18.432 0.512 6.656 0.512 13.312 0 20.48 0.512 12.288 0.512 24.576 1.024 37.376 1.024 1.536 0 3.072 0 4.096 0.512 7.168 1.536 12.8-3.072 18.432-6.656 7.168-3.584 14.336-7.68 21.504-11.776z" fill="#FEDA6E" p-id="18523"></path><path d="M638.464 729.088c0.512-1.536 0-2.048-1.024-3.072-10.752-9.728-21.504-19.968-31.744-29.696-3.072-3.072-6.144-6.144-9.728-9.216-1.024-0.512-1.536-1.536-2.56-1.024-0.512-0.512 0-1.024 0-1.536 6.656-7.68 12.8-15.872 17.92-24.576 0.512-0.512 0.512-1.536 1.536-1.536 4.608 5.632 10.24 10.752 15.36 15.872l2.048 2.048c7.168 6.656 14.848 13.312 22.016 19.968 2.048 1.536 3.072 3.584 5.632 4.608 0 1.024-1.024 1.024-1.024 1.536-5.632 8.704-11.776 16.384-17.92 24.576 0 0.512 0.512 1.536-0.512 2.048z" fill="#E18C85" p-id="18524"></path><path d="M200.192 714.24c3.072 2.048 4.608 5.632 6.656 8.192 9.728 12.288 20.48 24.064 31.744 34.816 14.336 13.824 30.72 25.6 47.616 36.352 8.704 5.632 17.92 10.24 27.136 14.336 1.024 0.512 2.048 0.512 2.56 1.536-6.144-1.536-11.264-4.608-16.896-7.68-14.336-7.68-27.648-16.384-40.448-26.624-13.312-10.24-25.6-22.016-37.376-34.816-6.656-7.168-13.312-14.848-18.944-23.04-0.512-0.512-1.536-1.536-2.048-3.072z" fill="#FEABA3" p-id="18525"></path><path d="M435.2 91.648h2.56c-0.512 1.024-1.536 1.024-2.56 0z" fill="#C1463B" p-id="18526"></path><path d="M593.92 684.544c0 0.512-0.512 0.512-0.512 1.024-18.944 22.528-40.96 40.96-67.072 54.784-22.528 12.288-46.08 19.968-71.68 23.552-37.888 5.12-74.24 0-109.568-14.848-22.016-9.216-41.472-22.016-59.392-37.888-27.136-23.552-47.616-51.712-62.464-83.968-11.264-23.552-18.432-48.64-22.528-74.24-1.536-10.24-2.56-20.992-3.072-31.744-1.024-14.848 0-29.184 1.536-44.032 3.072-27.136 9.728-53.76 20.48-78.848 6.144-14.336 12.8-27.648 21.504-40.448 7.68-11.776 15.872-23.04 25.6-32.768 13.312-14.336 27.648-27.136 44.032-37.888 19.968-12.8 40.96-22.528 64-28.672 15.36-4.096 31.232-6.144 47.616-6.656 23.04-0.512 45.568 2.56 67.584 9.728 26.112 8.192 50.176 21.504 71.168 38.912 21.504 17.408 38.912 37.376 53.76 60.928 16.384 26.112 27.648 53.76 34.304 83.456 3.584 16.896 6.144 33.792 7.168 51.2 0.512 2.56-1.024 3.072-3.072 2.56-6.144-0.512-12.288-0.512-18.432-1.024-11.776-0.512-24.064-1.024-35.84-1.536-6.144-0.512-12.288-0.512-18.944-1.024-4.608 0-9.728-1.024-14.336-0.512-2.56 0-2.048-2.048-2.56-3.072-1.024-1.024-1.024-2.56-1.024-4.096-2.048-15.36-6.144-30.208-12.288-44.544-6.144-13.824-13.824-26.624-23.552-37.888-12.288-14.336-26.624-25.6-43.008-33.792-13.824-6.656-28.16-10.752-43.008-11.776-27.648-2.048-53.248 4.096-76.8 19.456-27.136 17.408-45.056 41.984-56.832 72.192-5.12 13.824-8.704 28.672-9.728 43.52-2.56 30.208 2.56 59.392 16.384 87.04 7.68 15.36 17.408 29.184 29.696 40.96 20.48 19.456 44.544 31.744 72.704 35.328 24.064 3.072 47.616-1.024 69.12-12.288 11.264-5.632 22.016-13.312 31.232-22.016 2.048-2.048 4.096-3.584 5.632-5.632 0.512-0.512 1.024-1.024 1.536-1.024 8.704 9.216 18.432 17.408 27.648 26.624 12.8 12.288 25.6 23.552 37.888 35.84 1.536 1.024 4.096 2.56 5.12 5.12z" fill="#FE5C4F" p-id="18527"></path><path d="M521.216 617.472c-8.704 9.728-18.944 17.408-30.208 24.064-15.36 9.216-32.256 14.848-50.176 16.384-24.576 2.56-48.128-2.048-70.144-13.824-23.552-12.288-41.472-30.72-54.784-53.76-11.776-20.48-18.944-41.984-20.992-65.536-3.584-35.84 3.584-69.12 21.504-100.352 14.336-24.064 33.792-43.008 59.904-55.296 15.36-7.168 32.256-11.264 49.152-11.776 33.28-0.512 61.952 11.264 87.04 33.28 23.04 20.48 37.376 46.592 45.056 75.776 2.048 7.68 3.584 15.872 4.096 24.064 0 2.048-1.024 3.072-3.072 2.56-13.824-1.024-27.648-1.536-41.472-2.048-4.608 0-9.216-0.512-13.824-0.512-1.024 0-2.048 0-3.072-0.512-1.024-0.512-1.024-1.536-1.536-2.56-3.584-15.36-10.24-28.672-21.504-39.424-11.776-11.776-25.6-18.944-42.496-20.48-18.432-1.536-34.816 3.584-48.64 15.36-15.36 12.8-24.576 30.208-27.648 50.176-2.56 16.896-1.024 33.28 5.632 49.152 9.216 21.504 24.576 36.864 47.616 43.52 17.92 5.12 34.816 2.56 50.688-6.656 3.072-1.536 5.632-4.096 8.704-6.144 3.584-2.048 3.584-2.048 6.656 1.024 8.192 7.168 15.872 14.848 23.552 22.528 6.144 5.632 11.776 11.264 17.92 16.896 1.536 1.536 3.072 2.56 2.048 4.096z" fill="#FED7D3" p-id="18528"></path><path d="M472.064 573.952c-11.264 9.216-24.064 14.336-38.4 15.36-18.432 1.024-34.304-4.608-48.128-16.384-16.384-13.824-25.6-32.256-28.16-53.248-3.072-23.04 2.048-44.544 15.872-63.488 14.336-18.944 33.28-29.696 57.344-29.184 16.384 0 30.72 6.144 43.008 16.896 14.336 12.288 22.528 28.16 26.624 46.592-1.536 1.024-3.072 0-4.608 0-4.096 0-8.192-0.512-12.288-0.512-12.8-0.512-26.112-1.024-38.912-2.048-6.144-0.512-11.776 0-16.896 3.584-5.632 4.096-8.704 9.728-8.704 16.896 0 4.608 2.048 8.704 5.12 12.288l1.536 1.536c0 1.024 0.512 1.024 1.024 1.536 5.12 5.12 10.24 9.728 15.36 14.336 7.68 8.192 16.384 15.36 24.064 23.552 3.072 3.072 6.144 6.656 9.728 9.216-1.024 2.048-2.56 2.048-3.584 3.072z" fill="#FE5D4F" p-id="18529"></path><path d="M777.216 522.752c-7.168 0-14.336-1.536-21.504-1.024-1.536 0-3.584-0.512-3.584-2.56 0-2.56 2.048-2.56 3.584-3.072 5.12-0.512 10.24 0 15.36 0.512 3.584 0.512 6.656 0 10.24 0.512 2.048 0 3.584 0.512 3.584 3.072s-1.536 3.072-3.584 3.072c-1.024-0.512-2.56-0.512-4.096-0.512z" fill="#FEE5C0" p-id="18530"></path><path d="M802.816 523.264c-1.536 0-3.072 0.512-4.096-0.512-1.024-0.512-1.536-1.024-1.536-2.048s0.512-2.048 1.536-2.048c2.56-1.024 5.632-0.512 8.192-0.512 1.024 0 2.048 1.536 2.048 2.56 0 1.536-1.024 2.048-2.048 2.56h-4.096z" fill="#FDE2BC" p-id="18531"></path><path d="M658.944 700.928c-1.536 1.024-2.048-0.512-3.072-1.024-5.632-5.632-11.264-11.264-17.408-16.384-8.192-6.656-15.872-14.336-23.552-22.016-1.024-1.024-1.536-1.536-1.536-3.072-0.512-1.024 0-1.536 0.512-2.048 11.776-18.944 20.992-38.912 27.648-59.904 5.632-17.408 9.728-34.816 11.776-52.736 0-1.536 0-3.072 1.024-4.608 10.752 0 20.992 1.024 31.744 1.536 6.656 0.512 12.8 0.512 19.456 1.024 2.56 0 5.12 0 7.168 1.024-1.536 19.456-5.12 38.912-10.24 57.856-5.12 19.456-12.288 38.912-20.48 57.344-6.144 14.336-14.336 28.672-23.04 43.008z" fill="#FED7D3" p-id="18532"></path><path d="M846.336 453.632c-0.512 2.048-1.024 4.096-3.072 5.632-1.536 1.024-3.072 2.048-5.12 3.072-1.024 0.512-2.048 1.024-3.072 0-1.024-1.024-1.536-2.048-1.024-3.584 1.536-3.584 4.096-5.632 7.168-8.192 2.048-1.536 4.608 0 5.12 3.072zM936.96 455.68c-1.024 4.096-3.072 7.68-6.144 10.752-1.536 1.536-4.608 0-4.096-2.048 0-4.608 2.048-8.704 5.632-11.776 1.024-1.024 2.048-1.024 3.072 0 1.024 0.512 2.048 1.536 1.536 3.072z" fill="#FEFBEC" p-id="18533"></path><path d="M884.736 462.336c-2.56 0-4.096-2.048-3.072-4.096 1.024-2.56 2.56-4.608 4.608-5.632 1.536-1.024 3.072-1.024 4.608 0.512 1.536 1.536 1.024 3.072 0 4.608-2.048 1.536-3.584 4.096-6.144 4.608z" fill="#FEFBEB" p-id="18534"></path><path d="M971.264 449.536c-2.048 2.56-3.584 5.12-5.632 8.192-1.536 1.536-2.56 3.072-3.584 5.12-0.512 1.536-1.536 3.072-3.072 4.096-1.024 1.024-1.536 2.048-2.56 3.072 1.024-4.608 3.584-8.704 5.632-12.288 1.024-2.048 2.56-3.584 3.584-5.632 1.536-3.584 3.072-3.584 5.632-2.56z" fill="#E6CB78" p-id="18535"></path><path d="M918.016 448c-2.048 3.584-4.096 7.168-6.656 10.752-0.512 1.536-1.536 3.072-2.048 4.096-0.512 1.024-0.512 2.048-2.56 3.072 2.56-6.656 5.12-12.8 7.68-18.944 1.024 0 2.56-0.512 3.584 1.024z" fill="#E7CD7B" p-id="18536"></path><path d="M909.312 463.36c0.512-1.536 1.024-3.072 2.048-4.096 1.024 1.536 1.536-1.024 2.048-0.512 0 2.048-2.56 2.56-4.096 4.608z" fill="#F4E9C5" p-id="18537"></path><path d="M958.976 466.432c1.024-1.536 2.048-2.56 3.072-4.096 0 0.512 0 1.024 0.512 1.024-1.024 1.536-1.536 3.584-3.584 3.072z" fill="#F8F1D9" p-id="18538"></path><path d="M654.336 539.136c-1.024 13.824-4.096 27.648-7.168 40.96-5.12 19.968-12.288 39.424-22.016 57.856-3.584 7.168-7.68 14.336-11.776 20.992-0.512 0.512-0.512 1.024-1.024 1.536-4.608-5.12-9.216-9.728-14.336-14.336-0.512-0.512-1.024-0.512-1.024-1.024-9.728-10.24-19.968-19.456-29.696-29.184-7.68-7.68-15.872-14.848-23.04-22.528l-2.56-2.56v-1.024c0.512-1.024 1.024-2.56 1.536-3.584 3.584-7.168 7.168-14.848 9.728-22.528 3.072-8.192 5.12-16.896 6.656-25.088 0.512-1.536 0-2.56 1.536-3.584 1.024-0.512 2.048-0.512 3.584-0.512 6.656 0.512 13.824 0.512 20.48 1.024 11.264 0.512 22.016 1.024 33.28 1.536 6.656 0.512 13.824 0.512 20.48 1.024 5.12 0.512 10.752 0 15.36 1.024z" fill="#FE5D4F" p-id="18539"></path><path d="M840.704 588.8c-1.024 1.024 0 2.048 0 2.56l-1.024-1.024c-0.512-0.512-0.512-2.048-1.536-2.048-1.536-0.512-2.048-2.56-3.584-3.584-0.512 1.024 1.024 2.048 0 3.072-1.024 0-2.048-0.512-3.584-1.024-13.824-7.68-27.648-15.872-41.472-23.552l-19.968-10.752c-6.144-3.072-11.776-6.144-17.92-9.728-0.512-0.512-1.536-0.512-1.024-1.024 0.512-1.024 1.024-0.512 2.048-0.512s1.536 0 2.56 0.512c9.728 0.512 19.968 0.512 29.696 1.024 7.68 0.512 15.872 0.512 23.552 1.024 12.288 0.512 24.064 1.536 36.352 1.536 4.096 0 8.192 0.512 12.288 0.512 3.584 1.024 7.168 0.512 10.752 1.024 9.728 0.512 19.456 0.512 28.672 1.024l27.648 1.536c9.728 0.512 18.944 1.024 28.672 1.536 2.048 0 2.56 1.024 3.584 2.56 9.728 13.824 19.456 28.16 29.184 41.984-10.24 0-20.48-1.024-30.208-1.536-5.632-0.512-10.752-0.512-16.384-0.512-0.512 0-0.512 0-1.024-0.512-1.536-2.56-3.584-5.12-5.12-7.68 0.512 1.536 1.536 3.072 2.56 5.12 0.512 1.024 1.024 1.536 0.512 2.56-9.216-0.512-17.92-1.024-27.136-1.536-3.072 0-6.144-0.512-9.216-0.512-8.704-0.512-16.896-0.512-25.6-1.024-9.728-0.512-19.456-1.536-29.184-1.536-0.512 0.512-2.56-1.024-4.096 0.512z" fill="#FEEBA6" p-id="18540"></path><path d="M561.152 534.528c-3.072 18.432-8.704 35.84-17.408 52.224-2.048 3.584-2.048 3.584-5.12 1.024-0.512-0.512-1.536-1.024-2.048-1.536-11.776-12.288-24.576-23.552-36.352-35.84l-2.56-2.56c-2.048-1.024-2.56-3.072-2.56-5.12 1.536-3.584 2.56-7.68 4.608-11.264 11.264 0 22.016 1.024 33.28 1.536 6.144 0.512 12.288 0.512 18.432 1.024 3.072 0 6.144-0.512 9.728 0.512z" fill="#FED7D3" p-id="18541"></path><path d="M475.136 571.392c-1.024 0-1.536-0.512-2.56-1.024-3.584-3.584-7.68-7.168-11.264-10.752-8.704-8.192-16.896-16.896-25.6-25.088-3.584-3.072-6.656-6.656-10.24-9.728-0.512-0.512-2.048-1.024-1.024-2.048 4.608 4.096 9.728 5.12 15.872 5.632 13.312 0.512 26.112 1.536 39.424 2.048l3.072 1.536 10.24 10.24c0.512 1.024 1.536 1.536 1.536 2.56-1.024 4.608-4.096 8.704-6.656 12.8-3.072 4.608-6.144 8.704-10.24 12.288-0.512 1.024-1.024 2.048-2.56 1.536z" fill="#E13D32" p-id="18542"></path><path d="M494.08 544.768c0-0.512-0.512-1.024-0.512-1.536l-13.312-13.312c5.632 0 11.264 0.512 16.896 0.512 0.512 0 1.024 0.512 2.048 0.512-1.024 4.096-2.56 7.68-4.096 11.264-0.512 1.024 0.512 2.56-1.024 2.56z" fill="#FE5D4F" p-id="18543"></path><path d="M939.52 593.92l0.512 0.512c1.536 2.048 2.56 3.584 3.584 6.144 1.536 0 1.024 1.536 1.536 2.048 2.048 4.096 4.608 7.68 7.168 11.264 0.512 1.024 1.024 1.536 1.024 2.56-0.512 2.048-4.096 2.048-5.12-0.512-1.536-2.048-2.56-4.096-3.584-6.656-2.048-5.12-4.096-9.728-7.168-14.336-0.512-0.512 0-1.024-0.512-1.536 1.536-0.512 2.048 0 2.56 0.512z" fill="#E5BD4F" p-id="18544"></path><path d="M896.512 603.136l4.608 9.216c-0.512 1.536-2.56 1.536-3.072 0.512-0.512-0.512-1.024-1.536-1.024-2.56-1.536-5.12-3.072-9.728-5.12-14.848-0.512-1.024-1.024-2.048-0.512-3.584 1.536 1.024 2.048 3.072 3.072 4.608 0.512 2.56 1.536 4.608 2.048 6.656z" fill="#E7C055" p-id="18545"></path><path d="M939.52 593.92h-2.048-0.512c-1.536-3.072-3.072-6.144-4.096-9.216 2.56 2.56 5.12 5.632 6.656 9.216z" fill="#EAD07E" p-id="18546"></path><path d="M896.512 603.136c-1.536-2.048-2.048-4.096-2.56-6.656 1.536 1.536 3.072 3.584 3.584 5.632-1.536-0.512-1.024 0.512-1.024 1.024z" fill="#F7E4AE" p-id="18547"></path><path d="M834.56 587.776c-0.512-1.024-0.512-1.536-1.024-2.56 0-0.512-1.024-1.536 0-1.536 1.024-0.512 1.536 0.512 1.536 1.024 1.024 1.536 1.536 2.56 2.56 3.584h-2.56s0-0.512-0.512-0.512z" fill="#E8CE7A" p-id="18548"></path><path d="M945.664 602.112c-0.512-0.512-1.024-1.536-1.536-2.048 1.024-1.024 1.024-1.024 2.048 1.024-0.512 0.512-0.512 1.024-0.512 1.024z" fill="#FBEEC8" p-id="18549"></path><path d="M838.144 588.288c1.536 0 1.536 1.024 1.536 2.048-1.024-0.512-1.024-1.536-1.536-2.048z" fill="#F8D773" p-id="18550"></path><path d="M918.016 448c-1.024-0.512-2.56-0.512-3.584-0.512 1.024-0.512 2.56-1.536 3.584 0.512z" fill="#FEEBA6" p-id="18551"></path><path d="M541.696 590.336c0.512 0.512 1.024 0.512 1.024 1.024 9.728 9.216 18.944 18.944 28.672 28.16 8.704 8.192 17.408 16.896 26.112 25.6 4.608 4.096 8.704 8.192 12.8 12.8 1.024 0.512 1.536 1.536 1.536 2.56-5.632 8.704-11.264 16.896-18.432 24.576-2.56-2.048-5.12-4.096-7.168-6.656-8.704-8.192-16.896-16.384-25.6-24.576-6.144-5.632-12.288-11.776-18.432-17.408-6.144-5.632-12.288-11.264-18.432-17.408-0.512-0.512-1.536-1.536-2.048-2.56 0-1.536 1.024-2.048 2.048-3.072 4.096-5.12 8.704-10.752 12.288-16.384 1.536-1.024 2.048-3.072 3.072-4.096 1.024-1.024 1.536-2.048 2.56-2.56z" fill="#E13D32" p-id="18552"></path><path d="M537.088 597.504c-4.096 6.656-9.216 12.8-14.848 18.944l-1.024 1.024c-1.024-3.072-4.096-4.608-6.144-6.656-4.096-4.096-8.704-8.192-13.312-12.288-8.192-7.68-15.872-15.36-24.064-23.04-2.048-2.048-3.584-3.072-5.632-1.024 0.512-1.536 2.048-2.048 3.072-2.56 8.192-7.68 14.848-16.384 18.944-26.624 0.512-0.512 0.512-1.536 1.024-2.048 0 1.536 0.512 3.072 2.048 4.096 0.512 0 1.024 0.512 1.024 1.024 12.8 12.288 25.088 25.088 37.888 37.376l1.536 1.536c3.072 2.56 3.072 2.56 5.12-0.512 0 1.536-1.024 2.56-1.536 3.072-1.024 2.56-2.56 5.12-4.096 7.68z" fill="#E18C85" p-id="18553"></path><path d="M537.088 597.504c1.024-2.56 2.56-5.632 5.12-7.68v0.512c-2.048 2.048-3.072 5.12-5.12 7.168z" fill="#E1635A" p-id="18554"></path></svg>