<?xml version="1.0" standalone="no"?>
<!DOCTYPE svg PUBLIC "-//W3C//DTD SVG 20010904//EN"
 "http://www.w3.org/TR/2001/REC-SVG-20010904/DTD/svg10.dtd">
<svg version="1.0" xmlns="http://www.w3.org/2000/svg"
 width="1024.000000pt" height="1024.000000pt" viewBox="0 0 1024.000000 1024.000000"
 preserveAspectRatio="xMidYMid meet">
<metadata>
Created by potrace 1.14, written by Peter Selinger 2001-2017
</metadata>
<g transform="translate(0.000000,1024.000000) scale(0.100000,-0.100000)"
fill="#000000" stroke="none">
<path d="M1669 9606 c-3 -3 -52 -8 -109 -11 -58 -2 -116 -7 -130 -11 -14 -3
-32 -6 -40 -6 -8 0 -21 -5 -27 -11 -7 -5 -13 -7 -13 -4 0 10 -101 -28 -183
-68 -43 -21 -77 -40 -77 -44 0 -3 -13 -12 -29 -19 -61 -27 -281 -263 -281
-301 0 -5 -3 -11 -7 -13 -11 -4 -67 -120 -78 -160 -2 -5 -4 -10 -5 -13 -1 -3
-4 -9 -5 -15 -1 -5 -3 -11 -5 -12 -3 -5 -9 -32 -25 -118 -14 -76 -15 -472 -12
-3715 1 -1996 5 -3639 9 -3650 3 -11 11 -40 17 -65 37 -161 127 -318 256 -445
89 -87 86 -85 165 -136 118 -78 295 -137 432 -144 39 -2 72 -6 75 -8 2 -3 20
-1 39 3 19 4 36 4 39 0 3 -4 21 -4 40 0 19 4 37 4 40 0 3 -4 21 -4 40 0 19 4
37 4 40 0 3 -4 20 -5 37 -1 40 9 43 9 91 1 20 -4 40 -4 42 0 3 4 21 4 40 0 19
-4 35 -4 35 0 0 4 18 4 40 0 22 -4 40 -4 40 0 0 4 20 4 45 0 25 -4 45 -4 45
-1 0 7 89 5 96 -2 3 -3 18 -2 33 3 16 4 34 4 41 0 6 -4 27 -4 46 0 19 4 36 4
39 0 3 -5 17 -5 33 -1 15 4 44 4 64 1 21 -4 38 -4 38 0 0 4 20 4 45 0 25 -4
45 -4 45 -1 0 7 89 5 96 -2 3 -3 18 -2 33 3 16 4 34 4 41 0 6 -4 27 -4 46 0
18 4 35 5 38 3 7 -7 264 -6 275 1 5 4 12 2 15 -3 3 -5 21 -5 41 -1 19 4 37 4
40 0 3 -4 21 -4 40 0 19 4 37 4 40 0 3 -4 21 -4 40 0 19 4 37 4 40 0 3 -4 21
-4 40 0 19 4 37 4 40 0 3 -4 21 -4 40 0 19 4 37 4 40 0 3 -4 21 -4 40 0 19 4
37 4 40 0 3 -4 20 -5 37 -1 33 7 92 5 116 -4 6 -2 12 -1 12 3 0 7 126 6 147
-2 7 -3 15 -2 17 3 3 4 22 5 43 2 21 -4 57 -4 80 -1 23 4 47 4 54 0 6 -4 26
-4 45 0 19 4 36 4 39 0 3 -5 18 -5 34 0 15 4 34 4 41 0 6 -4 26 -4 44 -1 17 4
46 4 64 0 17 -3 32 -3 32 0 0 4 19 5 43 1 23 -3 63 -3 90 1 26 3 49 3 52 1 6
-7 94 -6 101 0 3 3 20 2 39 -2 19 -4 36 -5 39 -2 5 4 83 6 104 2 20 -4 144 0
152 5 5 3 11 1 14 -4 3 -5 21 -5 41 -1 19 4 37 4 40 0 3 -4 21 -4 40 0 19 4
37 4 40 0 3 -4 21 -4 40 0 19 4 37 4 40 0 3 -4 21 -4 40 0 19 4 37 4 40 0 3
-4 21 -4 40 0 19 4 37 4 40 0 3 -4 21 -4 40 0 19 4 37 4 40 0 3 -4 20 -5 37
-1 18 4 35 8 38 8 3 1 24 -2 48 -7 23 -4 45 -4 47 0 3 4 21 4 40 0 19 -4 35
-4 35 0 0 4 18 4 40 0 22 -4 40 -4 40 0 0 4 20 4 45 0 25 -4 45 -4 45 -1 0 7
89 5 96 -2 3 -3 18 -2 33 3 16 4 34 4 41 0 6 -4 27 -4 46 0 19 4 36 4 39 0 3
-5 17 -5 33 -1 15 4 44 4 64 1 21 -4 38 -4 38 0 0 4 20 4 45 0 25 -4 45 -4 45
-1 0 7 89 5 96 -2 3 -3 18 -2 33 3 16 4 34 4 41 0 6 -4 27 -4 46 0 18 4 35 5
38 3 7 -7 264 -6 275 1 5 4 12 2 15 -3 3 -5 21 -5 41 -1 19 4 37 4 40 0 3 -4
21 -4 40 0 19 4 37 4 40 0 3 -4 21 -4 40 0 19 4 37 4 40 0 3 -4 21 -4 40 0 19
4 37 4 40 0 3 -4 21 -4 40 0 19 4 37 4 40 0 3 -4 21 -4 40 0 19 4 37 4 40 0 3
-4 20 -5 37 -1 33 7 92 5 116 -4 6 -2 12 -1 12 3 0 7 126 6 147 -2 7 -3 15 -2
17 3 3 4 22 5 43 2 21 -4 57 -4 80 -1 23 4 47 4 54 0 6 -4 26 -4 45 0 19 4 36
4 39 0 3 -5 18 -5 34 0 15 4 34 4 41 0 6 -4 26 -4 44 -1 17 4 46 4 64 0 17 -3
32 -3 32 0 0 4 19 5 43 1 23 -3 64 -3 90 1 26 3 50 3 52 -1 2 -4 25 -4 50 0
25 4 48 3 51 -2 3 -4 10 -5 17 -1 6 4 25 8 42 10 33 3 64 9 110 18 17 4 35 8
40 9 35 8 63 18 163 63 121 54 304 213 378 329 61 96 111 205 130 285 34 142
33 73 33 3774 0 2149 -3 3636 -9 3660 -5 22 -11 52 -14 67 -12 71 -78 229
-120 291 -14 21 -26 40 -26 42 0 7 -28 40 -83 99 -27 28 -52 56 -55 61 -19 28
-171 130 -247 165 -66 30 -153 60 -189 65 -15 3 -36 7 -45 10 -39 12 -234 20
-251 10 -3 -2 -12 0 -19 4 -7 5 -28 5 -46 1 -18 -4 -39 -4 -46 0 -7 5 -22 5
-33 0 -11 -4 -32 -4 -46 0 -14 4 -34 4 -45 0 -11 -4 -34 -4 -52 1 -18 4 -33 4
-33 0 0 -4 -19 -5 -42 -1 -24 3 -64 3 -91 -1 -26 -3 -49 -3 -52 -1 -6 7 -94 6
-101 0 -3 -3 -20 -2 -39 2 -19 4 -36 5 -39 2 -5 -4 -83 -6 -103 -2 -21 4 -145
0 -153 -5 -5 -3 -11 -1 -14 4 -3 5 -21 5 -41 1 -19 -4 -37 -4 -40 0 -3 4 -21
4 -40 0 -19 -4 -37 -4 -40 0 -3 4 -21 4 -40 0 -19 -4 -37 -4 -40 0 -3 4 -21 4
-40 0 -19 -4 -37 -4 -40 0 -3 4 -21 4 -40 0 -19 -4 -37 -4 -40 0 -3 4 -21 4
-40 0 -19 -4 -37 -4 -40 0 -3 4 -22 4 -42 -1 -21 -4 -38 -8 -38 -8 0 6 -87 14
-90 9 -3 -4 -21 -4 -40 0 -19 4 -35 4 -35 0 0 -4 -18 -4 -40 0 -22 4 -40 4
-40 0 0 -4 -20 -4 -45 0 -25 4 -45 4 -45 1 0 -7 -89 -5 -96 2 -3 3 -18 2 -33
-3 -16 -4 -34 -4 -41 0 -6 4 -27 4 -46 0 -19 -4 -36 -4 -39 0 -3 5 -17 5 -33
1 -15 -4 -44 -4 -64 -1 -21 4 -38 4 -38 0 0 -4 -20 -4 -45 0 -25 4 -45 4 -45
1 0 -7 -89 -5 -96 2 -3 3 -18 2 -33 -3 -16 -4 -34 -4 -41 0 -6 4 -27 4 -46 0
-18 -4 -35 -5 -38 -3 -7 7 -264 6 -275 -1 -5 -4 -12 -2 -15 3 -3 5 -21 5 -41
1 -19 -4 -37 -4 -40 0 -3 4 -21 4 -40 0 -19 -4 -37 -4 -40 0 -3 4 -21 4 -40 0
-19 -4 -37 -4 -40 0 -3 4 -21 4 -40 0 -19 -4 -37 -4 -40 0 -3 4 -21 4 -40 0
-19 -4 -37 -4 -40 0 -3 4 -21 4 -40 0 -19 -4 -37 -4 -40 0 -3 4 -20 5 -37 1
-33 -7 -92 -5 -115 4 -7 2 -13 1 -13 -3 0 -7 -126 -6 -147 2 -7 3 -15 2 -17
-3 -3 -4 -22 -5 -43 -2 -21 4 -57 4 -80 1 -23 -4 -47 -4 -54 0 -6 4 -26 4 -45
0 -19 -4 -36 -4 -39 0 -3 5 -18 5 -34 0 -15 -4 -34 -4 -41 0 -6 4 -26 4 -44 1
-17 -4 -46 -4 -63 0 -18 3 -33 3 -33 0 0 -4 -19 -5 -42 -1 -24 3 -64 3 -91 -1
-26 -3 -49 -3 -52 -1 -6 7 -94 6 -101 0 -3 -3 -20 -2 -39 2 -19 4 -36 5 -39 2
-5 -4 -83 -6 -103 -2 -21 4 -145 0 -153 -5 -5 -3 -11 -1 -14 4 -3 5 -21 5 -41
1 -19 -4 -37 -4 -40 0 -3 4 -21 4 -40 0 -19 -4 -37 -4 -40 0 -3 4 -21 4 -40 0
-19 -4 -37 -4 -40 0 -3 4 -21 4 -40 0 -19 -4 -37 -4 -40 0 -3 4 -21 4 -40 0
-19 -4 -37 -4 -40 0 -3 4 -21 4 -40 0 -19 -4 -37 -4 -40 0 -3 4 -20 5 -37 1
-40 -9 -43 -9 -91 -1 -20 4 -40 4 -42 0 -3 -4 -21 -4 -40 0 -19 4 -35 4 -35 0
0 -4 -18 -4 -40 0 -22 4 -40 4 -40 0 0 -4 -20 -4 -45 0 -25 4 -45 4 -45 1 0
-7 -89 -5 -96 2 -3 3 -18 2 -33 -3 -16 -4 -34 -4 -41 0 -6 4 -27 4 -46 0 -19
-4 -36 -4 -39 0 -3 5 -17 5 -33 1 -15 -4 -44 -4 -64 -1 -21 4 -38 4 -38 0 0
-4 -20 -4 -45 0 -25 4 -45 4 -45 1 0 -7 -89 -5 -96 2 -3 3 -18 2 -33 -3 -16
-4 -34 -4 -41 0 -6 4 -27 4 -46 0 -18 -4 -35 -5 -38 -3 -7 7 -264 6 -275 -1
-5 -4 -12 -2 -15 3 -3 5 -21 5 -41 1 -19 -4 -37 -4 -40 0 -3 4 -20 4 -39 0
-19 -4 -38 -4 -43 1 -5 5 -12 7 -14 5z m2357 -2055 c146 -31 259 -90 355 -183
52 -50 109 -121 109 -136 0 -6 4 -12 8 -14 17 -7 89 -178 84 -200 -1 -5 2 -8
6 -8 5 0 9 -6 9 -12 1 -14 11 -80 18 -118 14 -68 16 -159 17 -552 0 -236 1
-428 3 -428 2 0 65 91 115 165 36 54 55 80 60 85 14 13 50 70 50 79 0 5 4 11
8 13 4 2 37 46 72 98 36 52 69 99 73 105 8 10 202 290 315 455 36 52 83 118
104 147 21 29 38 55 38 59 0 3 10 19 23 34 12 15 29 37 37 50 48 73 154 182
225 230 140 95 256 134 402 135 35 0 63 4 63 8 0 5 4 6 9 3 5 -3 29 -8 52 -11
72 -9 97 -14 147 -31 57 -20 175 -74 182 -84 3 -4 20 -15 38 -24 53 -27 193
-176 238 -251 38 -66 71 -139 80 -177 2 -10 6 -26 8 -37 2 -10 8 -34 13 -52
10 -38 10 -215 -1 -269 -21 -111 -74 -223 -165 -353 -23 -32 -41 -62 -41 -67
0 -4 -4 -10 -8 -12 -8 -3 -120 -161 -192 -270 -24 -38 -48 -68 -52 -68 -4 0
-8 -7 -8 -15 0 -8 -5 -15 -11 -15 -5 0 -8 -4 -5 -9 4 -5 3 -11 -1 -13 -12 -5
-63 -75 -63 -86 0 -6 -3 -12 -7 -14 -5 -1 -28 -32 -53 -68 -24 -36 -48 -66
-52 -68 -4 -2 -8 -8 -8 -13 0 -12 -82 -132 -92 -137 -5 -2 -8 -8 -8 -13 0 -6
-6 -17 -12 -25 -7 -8 -17 -20 -23 -27 -5 -7 -36 -51 -68 -99 l-58 -88 56 -72
c32 -40 61 -74 66 -76 5 -2 9 -8 9 -14 0 -5 6 -15 13 -22 6 -7 23 -28 37 -46
42 -56 151 -194 171 -218 10 -12 19 -24 19 -27 0 -3 8 -13 18 -23 9 -10 26
-31 37 -46 11 -16 25 -33 30 -40 6 -6 67 -83 135 -171 69 -88 130 -167 137
-175 27 -34 110 -139 133 -170 14 -18 33 -43 43 -54 229 -272 282 -514 178
-821 -9 -27 -21 -57 -26 -65 -5 -8 -19 -34 -32 -58 -12 -23 -32 -52 -43 -64
-11 -12 -20 -25 -20 -29 0 -20 -176 -179 -198 -179 -6 0 -12 -4 -14 -8 -7 -18
-137 -72 -227 -96 -77 -20 -113 -24 -205 -21 -113 2 -135 6 -217 30 -46 13
-155 62 -174 77 -5 5 -26 22 -45 38 -19 16 -38 30 -42 30 -5 0 -113 131 -201
243 -12 15 -27 33 -33 40 -5 7 -37 46 -71 89 -33 42 -66 82 -72 90 -7 7 -181
225 -387 483 -207 259 -385 481 -397 495 -12 14 -38 46 -57 72 -19 26 -38 48
-41 48 -4 0 -7 -210 -8 -467 -2 -460 -3 -499 -16 -577 -4 -21 -8 -49 -9 -62
-2 -13 -6 -27 -9 -31 -4 -3 -7 -16 -7 -27 0 -12 -12 -48 -26 -81 -14 -33 -26
-64 -28 -70 -1 -5 -7 -19 -13 -30 -7 -11 -20 -35 -30 -53 -27 -48 -112 -144
-160 -180 -108 -82 -227 -131 -357 -149 -63 -9 -228 -10 -252 -2 -11 4 -36 8
-55 10 -19 2 -40 7 -46 12 -7 5 -13 7 -13 4 0 -8 -70 17 -130 44 -98 46 -218
147 -268 226 -15 24 -30 43 -34 43 -5 0 -8 9 -8 20 0 11 -3 20 -7 20 -9 0 -33
49 -33 67 0 7 -4 13 -10 13 -5 0 -9 3 -9 8 1 4 0 9 -1 12 -1 3 -3 12 -5 20 -2
8 -11 34 -20 58 -8 23 -17 62 -19 85 -3 23 -5 42 -6 42 -4 0 -11 49 -16 115
-7 91 -6 3239 0 3328 3 35 8 72 11 82 3 10 8 29 10 42 12 60 18 84 25 93 6 8
13 29 25 75 4 17 63 122 89 160 45 64 132 148 198 191 56 36 173 88 213 94 34
6 79 16 82 19 2 2 56 4 121 5 87 2 141 -3 208 -18z"/>
</g>
</svg>
