<?xml version="1.0" encoding="UTF-8" standalone="no"?>
<!DOCTYPE svg PUBLIC "-//W3C//DTD SVG 1.1//EN" "http://www.w3.org/Graphics/SVG/1.1/DTD/svg11.dtd">
<!-- Created with Vectornator (http://vectornator.io/) -->
<svg height="100%" stroke-miterlimit="10" style="fill-rule:nonzero;clip-rule:evenodd;stroke-linecap:round;stroke-linejoin:round;" version="1.1" viewBox="0 0 580 406" width="100%" xml:space="preserve" xmlns="http://www.w3.org/2000/svg" xmlns:vectornator="http://vectornator.io" xmlns:xlink="http://www.w3.org/1999/xlink">
<defs/>
<g id="Untitled" vectornator:layerName="Untitled">
<path d="M275.791 205.002C275.808 202.558 275.317 200.137 274.351 197.892C273.419 195.714 272.087 193.731 270.423 192.045C268.745 190.357 266.76 189.005 264.575 188.063C259.969 186.106 254.766 186.106 250.16 188.063C245.771 189.943 242.285 193.454 240.438 197.857C238.526 202.404 238.526 207.529 240.438 212.076C242.285 216.479 245.771 219.991 250.16 221.87C254.766 223.827 259.969 223.827 264.575 221.87C266.76 220.928 268.745 219.577 270.423 217.888C272.087 216.202 273.419 214.219 274.351 212.041C275.308 209.818 275.798 207.422 275.791 205.002ZM257.376 175.657C264.077 175.554 270.598 177.82 275.791 182.056L275.791 155.945C275.756 154.488 276.32 153.08 277.351 152.049C278.382 151.018 279.79 150.454 281.247 150.488C282.707 150.447 284.121 151.005 285.158 152.035C286.219 153.054 286.8 154.474 286.757 155.945L286.757 205.002C286.908 212.819 283.79 220.344 278.155 225.762C268.761 235.147 254.237 237.054 242.739 230.415C231.241 223.775 225.634 210.242 229.067 197.415C232.499 184.589 244.117 175.666 257.394 175.657L257.376 175.657ZM351.58 205.002C351.731 212.819 348.613 220.344 342.977 225.762C333.861 234.752 319.945 236.736 308.68 230.653C297.414 224.569 291.441 211.844 293.959 199.291C296.476 186.738 306.894 177.3 319.634 176.031C332.374 174.762 344.449 181.959 349.394 193.769C350.856 197.335 351.622 201.148 351.651 205.002L351.58 205.002ZM322.235 186.606C319.747 186.586 317.282 187.088 315.001 188.081C310.612 189.96 307.125 193.472 305.278 197.875C303.366 202.422 303.366 207.547 305.278 212.094C307.125 216.497 310.612 220.008 315.001 221.888C319.606 223.844 324.81 223.844 329.416 221.888C331.601 220.946 333.586 219.594 335.263 217.906C336.927 216.22 338.26 214.237 339.191 212.059C341.117 207.514 341.117 202.383 339.191 197.839C338.26 195.661 336.927 193.677 335.263 191.991C333.586 190.303 331.601 188.952 329.416 188.01C327.167 187.059 324.747 186.581 322.306 186.606L322.235 186.606ZM402.468 217.729C403.925 217.694 405.333 218.258 406.364 219.289C407.395 220.32 407.959 221.728 407.924 223.185C407.917 224.718 407.273 226.18 406.147 227.22C394.299 237.443 376.515 236.571 365.724 225.238C354.933 213.905 354.933 196.099 365.724 184.766C376.515 173.434 394.299 172.562 406.147 182.784C407.362 183.814 408.053 185.333 408.031 186.926C408.078 188.392 407.519 189.813 406.485 190.854C405.451 191.89 404.037 192.455 402.574 192.418C401.278 192.426 400.021 191.979 399.02 191.156C397.352 189.72 395.461 188.567 393.421 187.743C391.38 186.958 389.209 186.566 387.022 186.588C384.579 186.58 382.16 187.07 379.912 188.028C377.727 188.955 375.737 190.288 374.047 191.956C372.358 193.629 371.012 195.615 370.083 197.804C368.161 202.398 368.161 207.571 370.083 212.165C371.012 214.353 372.358 216.34 374.047 218.013C375.737 219.68 377.727 221.013 379.912 221.941C382.16 222.899 384.579 223.389 387.022 223.381C389.206 223.404 391.375 223.024 393.421 222.261C395.456 221.465 397.339 220.323 398.984 218.884C400.011 218.121 401.26 217.716 402.539 217.729L402.468 217.729ZM414.27 228.837L414.27 155.963C414.255 154.497 414.831 153.087 415.868 152.051C416.904 151.014 418.314 150.439 419.78 150.453C421.23 150.44 422.622 151.017 423.637 152.053C424.686 153.08 425.265 154.495 425.237 155.963L425.237 196.844L456.573 176.457C457.448 175.899 458.467 175.608 459.505 175.621C460.244 175.617 460.975 175.762 461.656 176.048C462.324 176.311 462.929 176.71 463.433 177.221C463.926 177.74 464.323 178.341 464.607 178.998C464.902 179.658 465.054 180.373 465.051 181.096C465.169 182.816 464.372 184.47 462.954 185.45L441.002 199.67L463.54 225.034C464.521 226.064 465.068 227.432 465.069 228.855C465.071 229.578 464.92 230.293 464.624 230.953C464.341 231.609 463.944 232.211 463.451 232.73C462.947 233.24 462.342 233.64 461.674 233.903C460.993 234.189 460.261 234.334 459.523 234.33C458.161 234.365 456.842 233.853 455.862 232.908L431.653 205.713L425.254 209.908L425.254 228.82C425.272 230.275 424.695 231.675 423.655 232.694C422.652 233.749 421.253 234.335 419.798 234.312C418.327 234.335 416.912 233.75 415.887 232.694C414.872 231.671 414.314 230.279 414.341 228.837L414.27 228.837ZM517.929 199.545C517.357 197.63 516.461 195.827 515.281 194.213C512.982 191.062 509.757 188.707 506.056 187.477C504.189 186.848 502.232 186.53 500.262 186.535C498.286 186.532 496.323 186.851 494.45 187.477C492.595 188.089 490.844 188.983 489.26 190.125C487.687 191.261 486.307 192.641 485.171 194.213C484.013 195.827 483.146 197.632 482.612 199.545L517.929 199.545ZM515.565 217.835C517.032 217.786 518.454 218.343 519.497 219.376C520.539 220.408 521.111 221.825 521.075 223.292C521.105 224.759 520.541 226.175 519.511 227.22C509.661 235.735 495.379 236.741 484.432 229.692C473.485 222.643 468.492 209.223 472.169 196.733C475.846 184.243 487.313 175.669 500.333 175.675C512.183 175.749 522.861 182.841 527.528 193.733C528.981 197.317 529.712 201.153 529.678 205.02C529.721 206.491 529.14 207.911 528.079 208.93C527.042 209.96 525.628 210.519 524.168 210.477L482.683 210.477C483.251 212.387 484.134 214.189 485.296 215.809C486.429 217.377 487.803 218.757 489.366 219.897C490.932 221.039 492.665 221.932 494.503 222.545C496.388 223.177 498.363 223.495 500.351 223.487C502.511 223.512 504.659 223.157 506.696 222.439C508.648 221.718 510.454 220.652 512.028 219.293C513.024 218.4 514.3 217.885 515.637 217.835L515.565 217.835ZM546.599 181.096L546.599 182.144C549.166 180.081 552.054 178.454 555.149 177.328C558.308 176.197 561.641 175.632 564.996 175.657C566.654 175.666 568.309 175.773 569.955 175.977C571.616 176.161 573.25 176.537 574.825 177.097C576.2 177.569 577.459 178.326 578.522 179.318C579.508 180.276 580.044 181.606 579.997 182.98C580.004 183.72 579.852 184.453 579.553 185.131C579.269 185.787 578.872 186.389 578.38 186.908C577.875 187.418 577.27 187.818 576.602 188.081C575.921 188.367 575.19 188.512 574.452 188.508C573.651 188.478 572.864 188.284 572.141 187.939C569.875 187.056 567.463 186.61 565.031 186.624C562.588 186.616 560.169 187.106 557.921 188.063C553.512 189.921 550.003 193.429 548.146 197.839C547.188 200.087 546.698 202.506 546.706 204.949L546.706 228.837C546.706 231.851 544.263 234.294 541.249 234.294C539.781 234.322 538.366 233.743 537.339 232.694C536.304 231.68 535.726 230.287 535.739 228.837L535.739 181.096C535.726 179.646 536.304 178.253 537.339 177.239C538.366 176.19 539.781 175.611 541.249 175.639C544.263 175.639 546.706 178.082 546.706 181.096L546.599 181.096Z" fill="#2496ed" fill-rule="nonzero" opacity="1" stroke="none" vectornator:layerName="path"/>
<path d="M202.436 168.263C197.868 165.081 187.381 163.908 179.187 165.49C178.228 157.563 173.855 150.613 166.23 144.463L161.84 141.281L158.783 145.849C154.811 152.545 153.016 160.308 153.646 168.067C153.974 172.367 155.347 176.522 157.645 180.171C152.885 182.64 147.577 183.863 142.217 183.726L4.4486 183.726L4.07534 185.308C2.74227 193.236 2.74227 218.031 18.2948 237.067C30.1146 251.553 47.6401 258.876 70.6933 258.876C120.621 258.876 157.592 234.881 174.922 191.44C181.782 191.636 196.446 191.44 203.894 176.563C204.089 176.172 204.462 175.372 205.795 172.404L206.56 170.822L202.365 168.245L202.436 168.263ZM114.578 112.327L93.6221 112.327L93.6221 132.163L114.578 132.163L114.578 112.327ZM114.578 136.127L93.6221 136.127L93.6221 155.963L114.578 155.963C114.578 155.963 114.578 136.127 114.578 136.127ZM89.8006 136.127L68.8448 136.127L68.8448 155.963L89.8006 155.963C89.8006 155.963 89.8006 136.127 89.8006 136.127ZM65.0233 136.127L44.0852 136.127L44.0852 155.963L65.0411 155.963L65.0411 136.127L65.0233 136.127ZM40.246 159.927L19.3079 159.927L19.3079 179.763L40.2638 179.763L40.2638 159.927L40.246 159.927ZM65.0233 159.927L44.0852 159.927L44.0852 179.763L65.0411 179.763L65.0411 159.927L65.0233 159.927ZM89.8006 159.927L68.8448 159.927L68.8448 179.763L89.8006 179.763C89.8006 179.763 89.8006 159.927 89.8006 159.927ZM114.578 159.927L93.6221 159.927L93.6221 179.763L114.578 179.763C114.578 179.763 114.578 159.927 114.578 159.927ZM139.355 159.927L118.399 159.927L118.399 179.763L139.355 179.763C139.355 179.763 139.355 159.927 139.355 159.927Z" fill="#2496ed" fill-rule="nonzero" opacity="1" stroke="none" vectornator:layerName="path"/>
</g>
</svg>
