<?xml version="1.0" encoding="UTF-8" standalone="no"?>
<!DOCTYPE svg PUBLIC "-//W3C//DTD SVG 1.1//EN" "http://www.w3.org/Graphics/SVG/1.1/DTD/svg11.dtd">
<!-- Created with Vectornator (http://vectornator.io/) -->
<svg height="100%" stroke-miterlimit="10" style="fill-rule:nonzero;clip-rule:evenodd;stroke-linecap:round;stroke-linejoin:round;" version="1.1" viewBox="0 0 515 225" width="100%" xml:space="preserve" xmlns="http://www.w3.org/2000/svg" xmlns:vectornator="http://vectornator.io" xmlns:xlink="http://www.w3.org/1999/xlink">
<defs/>
<clipPath id="ArtboardFrame">
<rect height="225" width="515" x="0" y="0"/>
</clipPath>
<g clip-path="url(#ArtboardFrame)" id="Canvas" vectornator:layerName="Canvas">
<g opacity="1" vectornator:layerName="Group">
<g opacity="1" vectornator:layerName="g">
<path d="M169.548 117.352C169.548 124.345 168.988 126.623 167.55 128.301C165.949 129.743 163.87 130.54 161.716 130.539L162.275 134.535C165.615 134.58 168.857 133.4 171.386 131.218C172.747 129.558 173.76 127.642 174.364 125.582C174.968 123.522 175.151 121.362 174.903 119.23L174.903 92.7764L169.548 92.7764L169.548 117.192L169.548 117.352Z" fill="#4e4e4e" fill-rule="nonzero" opacity="1" stroke="none" vectornator:layerName="path"/>
<path d="M209.482 114.2C209.482 117.197 209.482 119.874 209.721 122.192L204.966 122.192L204.647 117.437C203.652 119.119 202.229 120.508 200.524 121.463C198.818 122.418 196.89 122.904 194.936 122.871C190.301 122.871 184.786 120.354 184.786 110.084L184.786 93.0211L190.141 93.0211L190.141 109.005C190.141 114.56 191.859 118.276 196.694 118.276C197.689 118.287 198.676 118.099 199.597 117.723C200.518 117.347 201.355 116.791 202.059 116.088C202.762 115.384 203.318 114.547 203.694 113.626C204.07 112.705 204.258 111.718 204.247 110.724L204.247 92.8213L209.602 92.8213L209.602 114.04L209.482 114.2Z" fill="#4e4e4e" fill-rule="nonzero" opacity="1" stroke="none" vectornator:layerName="path"/>
<path d="M219.632 102.528C219.632 98.8113 219.632 95.7744 219.392 93.0171L224.187 93.0171L224.427 98.0121C225.495 96.2075 227.033 94.7266 228.877 93.7273C230.721 92.728 232.801 92.2478 234.896 92.3378C242.009 92.3378 247.364 98.2919 247.364 107.163C247.364 117.633 240.93 122.827 233.977 122.827C232.198 122.907 230.428 122.526 228.839 121.721C227.249 120.916 225.895 119.714 224.906 118.232L224.906 118.232L224.906 134.216L219.632 134.216L219.632 102.648L219.632 102.528ZM224.906 110.32C224.921 111.045 225.001 111.767 225.146 112.478C225.599 114.252 226.632 115.825 228.079 116.946C229.527 118.068 231.307 118.675 233.138 118.672C238.773 118.672 242.089 114.076 242.089 107.403C242.089 101.569 238.972 96.5736 233.338 96.5736C231.108 96.7562 229.022 97.7458 227.469 99.3569C225.917 100.968 225.006 103.09 224.906 105.325L224.906 110.32Z" fill="#4e4e4e" fill-rule="nonzero" opacity="1" stroke="none" vectornator:layerName="path"/>
<path d="M256.905 92.99L263.338 110.213C264.018 112.131 264.737 114.449 265.216 116.167C265.776 114.409 266.375 112.171 267.094 110.093L272.929 92.99L278.563 92.99L270.571 113.769C266.575 123.759 264.137 128.914 260.461 132.031C258.609 133.723 256.352 134.906 253.908 135.468L252.589 130.992C254.298 130.431 255.885 129.549 257.264 128.395C259.214 126.806 260.761 124.78 261.78 122.481C261.998 122.083 262.146 121.65 262.219 121.202C262.174 120.72 262.052 120.248 261.86 119.803L250.99 92.9101L256.825 92.9101L256.905 92.99Z" fill="#4e4e4e" fill-rule="nonzero" opacity="1" stroke="none" vectornator:layerName="path"/>
<path d="M292.778 84.6072L292.778 92.9988L300.451 92.9988L300.451 96.9948L292.778 96.9948L292.778 112.739C292.778 116.336 293.817 118.414 296.774 118.414C297.824 118.431 298.872 118.31 299.891 118.054L300.131 122.05C298.603 122.579 296.991 122.823 295.376 122.769C294.306 122.836 293.234 122.671 292.234 122.285C291.233 121.898 290.329 121.3 289.581 120.531C287.954 118.354 287.211 115.641 287.503 112.939L287.503 96.9549L282.948 96.9549L282.948 92.9588L287.583 92.9588L287.583 85.8459L292.778 84.6072Z" fill="#4e4e4e" fill-rule="nonzero" opacity="1" stroke="none" vectornator:layerName="path"/>
<path d="M310.314 108.526C310.206 109.881 310.393 111.244 310.863 112.52C311.332 113.795 312.073 114.954 313.035 115.915C313.996 116.877 315.155 117.618 316.431 118.088C317.706 118.557 319.069 118.744 320.424 118.636C323.165 118.697 325.889 118.18 328.416 117.117L329.335 121.113C326.234 122.391 322.898 123.004 319.545 122.912C317.59 123.045 315.63 122.755 313.798 122.06C311.965 121.365 310.306 120.282 308.931 118.885C307.557 117.488 306.502 115.81 305.837 113.967C305.172 112.124 304.914 110.159 305.079 108.206C305.079 99.415 310.314 92.4619 318.866 92.4619C328.456 92.4619 330.854 100.854 330.854 106.208C330.905 107.033 330.905 107.861 330.854 108.686L310.194 108.686L310.314 108.526ZM325.979 104.53C326.133 103.462 326.056 102.373 325.754 101.336C325.452 100.3 324.931 99.3406 324.227 98.5226C323.522 97.7047 322.651 97.0473 321.671 96.5946C320.691 96.1419 319.625 95.9045 318.546 95.8985C316.351 96.0574 314.293 97.0306 312.778 98.6273C311.263 100.224 310.398 102.329 310.354 104.53L325.979 104.53Z" fill="#4e4e4e" fill-rule="nonzero" opacity="1" stroke="none" vectornator:layerName="path"/>
<path d="M338.979 102.077C338.979 98.6406 338.979 95.6835 338.739 92.9662L343.534 92.9662L343.534 98.6805L343.774 98.6805C344.277 96.9168 345.317 95.3536 346.749 94.2079C348.181 93.0621 349.935 92.3907 351.766 92.2869C352.27 92.2207 352.78 92.2207 353.284 92.2869L353.284 97.2819C352.674 97.2112 352.057 97.2112 351.446 97.2819C349.632 97.3522 347.906 98.0804 346.589 99.3305C345.273 100.581 344.457 102.267 344.293 104.075C344.144 104.893 344.064 105.722 344.053 106.553L344.053 122.097L338.779 122.097L338.779 102.117L338.979 102.077Z" fill="#4e4e4e" fill-rule="nonzero" opacity="1" stroke="none" vectornator:layerName="path"/>
</g>
<g opacity="1" vectornator:layerName="g">
<path d="M336.632 12.7276C336.796 15.4122 336.157 18.0848 334.797 20.405C333.437 22.7253 331.417 24.5881 328.994 25.7563C326.571 26.9244 323.856 27.3449 321.193 26.9643C318.531 26.5837 316.042 25.4191 314.044 23.6189C312.045 21.8188 310.628 19.4645 309.973 16.8561C309.317 14.2476 309.453 11.5031 310.362 8.97204C311.272 6.44102 312.915 4.23806 315.081 2.64385C317.247 1.04963 319.839 0.136307 322.526 0.0202223C324.288-0.0767214 326.051 0.175562 327.715 0.762565C329.379 1.34956 330.91 2.25971 332.221 3.44065C333.532 4.62159 334.597 6.05003 335.354 7.64382C336.111 9.23762 336.545 10.9653 336.632 12.7276L336.632 12.7276Z" fill="#767677" fill-rule="nonzero" opacity="1" stroke="none" vectornator:layerName="path"/>
<path d="M257.616 169.224C221.652 169.224 190.043 156.317 173.699 137.256C180.041 154.404 191.483 169.197 206.486 179.645C221.489 190.093 239.334 195.694 257.616 195.694C275.899 195.694 293.742 190.093 308.746 179.645C323.749 169.197 335.191 154.404 341.533 137.256C325.229 156.317 293.74 169.224 257.616 169.224Z" fill="#f37726" fill-rule="nonzero" opacity="1" stroke="none" vectornator:layerName="path"/>
<path d="M257.616 45.2755C293.58 45.2755 325.189 58.1827 341.533 77.2436C335.191 60.0962 323.749 45.3028 308.746 34.855C293.742 24.4071 275.899 18.8062 257.616 18.8062C239.334 18.8062 221.489 24.4071 206.486 34.855C191.483 45.3028 180.041 60.0962 173.699 77.2436C190.043 58.1428 221.492 45.2755 257.616 45.2755Z" fill="#f37726" fill-rule="nonzero" opacity="1" stroke="none" vectornator:layerName="path"/>
<path d="M208.107 206.318C208.318 209.699 207.517 213.067 205.808 215.992C204.098 218.917 201.556 221.266 198.506 222.741C195.456 224.216 192.036 224.75 188.681 224.274C185.327 223.799 182.19 222.335 179.67 220.07C177.151 217.805 175.362 214.842 174.533 211.557C173.704 208.272 173.871 204.814 175.014 201.625C176.157 198.435 178.223 195.658 180.95 193.648C183.676 191.637 186.94 190.483 190.325 190.334C192.542 190.215 194.761 190.535 196.855 191.274C198.948 192.013 200.876 193.157 202.527 194.642C204.179 196.126 205.521 197.921 206.479 199.925C207.436 201.928 207.989 204.101 208.107 206.318L208.107 206.318Z" fill="#9e9e9e" fill-rule="nonzero" opacity="1" stroke="none" vectornator:layerName="path"/>
<path d="M177.787 40.9318C175.849 40.9853 173.938 40.4646 172.296 39.4353C170.653 38.4059 169.351 36.9138 168.554 35.1466C167.757 33.3794 167.501 31.416 167.817 29.5033C168.132 27.5906 169.007 25.814 170.33 24.397C171.653 22.9799 173.365 21.9857 175.252 21.5392C177.138 21.0928 179.115 21.2142 180.932 21.8881C182.75 22.5619 184.328 23.7582 185.468 25.3265C186.607 26.8947 187.258 28.765 187.337 30.702C187.413 33.3211 186.453 35.8644 184.665 37.7797C182.876 39.695 180.405 40.8277 177.787 40.9318Z" fill="#616262" fill-rule="nonzero" opacity="1" stroke="none" vectornator:layerName="path"/>
</g>
</g>
</g>
</svg>
