<?xml version="1.0" encoding="UTF-8" standalone="no"?>
<!DOCTYPE svg PUBLIC "-//W3C//DTD SVG 1.1//EN" "http://www.w3.org/Graphics/SVG/1.1/DTD/svg11.dtd">
<!-- Created with Vectornator (http://vectornator.io/) -->
<svg height="100%" stroke-miterlimit="10" style="fill-rule:nonzero;clip-rule:evenodd;stroke-linecap:round;stroke-linejoin:round;" version="1.1" viewBox="0 0 580 406" width="100%" xml:space="preserve" xmlns="http://www.w3.org/2000/svg" xmlns:vectornator="http://vectornator.io" xmlns:xlink="http://www.w3.org/1999/xlink">
<defs/>
<g id="Canvas" vectornator:layerName="Canvas">
<g opacity="1" vectornator:layerName="Group">
<g opacity="1" vectornator:layerName="g">
<path d="M131.546 211.421C131.546 224.02 130.538 228.123 127.946 231.147C125.062 233.744 121.317 235.181 117.435 235.179L118.443 242.378C124.461 242.459 130.3 240.333 134.857 236.402C137.309 233.412 139.134 229.959 140.223 226.248C141.311 222.538 141.641 218.646 141.193 214.805L141.193 167.146L131.546 167.146L131.546 211.133L131.546 211.421Z" fill="#4e4e4e" fill-rule="nonzero" opacity="1" stroke="none" vectornator:layerName="path"/>
<path d="M203.49 205.743C203.49 211.142 203.49 215.966 203.922 220.141L195.355 220.141L194.779 211.574C192.987 214.605 190.425 217.108 187.352 218.828C184.279 220.547 180.806 221.423 177.285 221.365C168.934 221.365 158.999 216.829 158.999 198.327L158.999 167.587L168.646 167.587L168.646 196.384C168.646 206.391 171.742 213.086 180.453 213.086C182.245 213.105 184.023 212.766 185.683 212.089C187.342 211.412 188.85 210.411 190.117 209.143C191.384 207.876 192.386 206.368 193.063 204.709C193.74 203.049 194.079 201.271 194.059 199.479L194.059 167.227L203.706 167.227L203.706 205.455L203.49 205.743Z" fill="#4e4e4e" fill-rule="nonzero" opacity="1" stroke="none" vectornator:layerName="path"/>
<path d="M221.776 184.714C221.776 178.018 221.776 172.547 221.344 167.579L229.983 167.579L230.415 176.578C232.34 173.327 235.111 170.659 238.433 168.859C241.755 167.059 245.503 166.193 249.277 166.356C262.092 166.356 271.739 177.082 271.739 193.065C271.739 211.927 260.148 221.286 247.622 221.286C244.415 221.429 241.227 220.742 238.364 219.292C235.501 217.841 233.06 215.676 231.279 213.007L231.279 213.007L231.279 241.804L221.776 241.804L221.776 184.93L221.776 184.714ZM231.279 198.752C231.305 200.058 231.45 201.36 231.711 202.64C232.528 205.836 234.388 208.669 236.995 210.69C239.603 212.711 242.81 213.805 246.11 213.799C256.261 213.799 262.236 205.519 262.236 193.497C262.236 182.986 256.621 173.987 246.47 173.987C242.453 174.316 238.693 176.099 235.897 179.001C233.1 181.904 231.459 185.727 231.279 189.753L231.279 198.752Z" fill="#4e4e4e" fill-rule="nonzero" opacity="1" stroke="none" vectornator:layerName="path"/>
<path d="M288.927 167.531L300.518 198.559C301.742 202.015 303.038 206.19 303.902 209.286C304.91 206.119 305.989 202.087 307.285 198.343L317.796 167.531L327.947 167.531L313.549 204.967C306.349 222.965 301.958 232.252 295.335 237.867C291.999 240.914 287.931 243.047 283.528 244.058L281.152 235.995C284.231 234.984 287.09 233.396 289.575 231.316C293.087 228.454 295.875 224.803 297.71 220.661C298.103 219.944 298.371 219.165 298.502 218.357C298.42 217.488 298.202 216.638 297.854 215.837L278.272 167.387L288.783 167.387L288.927 167.531Z" fill="#4e4e4e" fill-rule="nonzero" opacity="1" stroke="none" vectornator:layerName="path"/>
<path d="M353.557 152.428L353.557 167.546L367.38 167.546L367.38 174.746L353.557 174.746L353.557 203.111C353.557 209.59 355.429 213.334 360.756 213.334C362.649 213.365 364.536 213.147 366.372 212.686L366.804 219.885C364.052 220.838 361.148 221.278 358.237 221.181C356.309 221.301 354.378 221.004 352.576 220.308C350.774 219.612 349.144 218.534 347.798 217.149C344.865 213.227 343.528 208.339 344.054 203.471L344.054 174.674L335.847 174.674L335.847 167.474L344.198 167.474L344.198 154.66L353.557 152.428Z" fill="#4e4e4e" fill-rule="nonzero" opacity="1" stroke="none" vectornator:layerName="path"/>
<path d="M385.15 195.52C384.955 197.962 385.292 200.416 386.138 202.715C386.984 205.014 388.319 207.101 390.051 208.833C391.783 210.565 393.871 211.9 396.169 212.746C398.468 213.593 400.923 213.93 403.364 213.734C408.303 213.845 413.209 212.912 417.763 210.998L419.418 218.198C413.83 220.5 407.822 221.603 401.78 221.437C398.258 221.678 394.726 221.155 391.426 219.903C388.125 218.65 385.134 216.699 382.659 214.182C380.183 211.666 378.281 208.643 377.083 205.323C375.886 202.002 375.42 198.462 375.719 194.944C375.719 179.106 385.15 166.579 400.556 166.579C417.835 166.579 422.154 181.698 422.154 191.345C422.246 192.831 422.246 194.322 422.154 195.808L384.934 195.808L385.15 195.52ZM413.371 188.321C413.649 186.396 413.511 184.434 412.966 182.567C412.422 180.7 411.484 178.972 410.215 177.498C408.946 176.025 407.376 174.84 405.61 174.025C403.845 173.209 401.925 172.781 399.981 172.771C396.025 173.057 392.319 174.81 389.589 177.687C386.859 180.563 385.301 184.356 385.222 188.321L413.371 188.321Z" fill="#4e4e4e" fill-rule="nonzero" opacity="1" stroke="none" vectornator:layerName="path"/>
<path d="M436.792 183.902C436.792 177.711 436.792 172.383 436.36 167.488L444.999 167.488L444.999 177.783L445.431 177.783C446.337 174.605 448.211 171.789 450.791 169.725C453.371 167.661 456.53 166.451 459.829 166.264C460.737 166.145 461.657 166.145 462.565 166.264L462.565 175.263C461.465 175.135 460.353 175.135 459.253 175.263C455.985 175.389 452.875 176.701 450.503 178.954C448.132 181.206 446.661 184.244 446.366 187.502C446.097 188.975 445.953 190.468 445.935 191.965L445.935 219.97L436.432 219.97L436.432 183.974L436.792 183.902Z" fill="#4e4e4e" fill-rule="nonzero" opacity="1" stroke="none" vectornator:layerName="path"/>
</g>
<g opacity="1" vectornator:layerName="g">
<path d="M432.564 22.93C432.859 27.7665 431.709 32.5815 429.258 36.7617C426.808 40.9419 423.168 44.298 418.804 46.4025C414.439 48.507 409.547 49.2646 404.75 48.5789C399.953 47.8931 395.469 45.795 391.869 42.5518C388.269 39.3087 385.716 35.0673 384.535 30.3679C383.353 25.6685 383.598 20.7239 385.237 16.164C386.876 11.6041 389.835 7.63528 393.738 4.76315C397.64 1.89101 402.309 0.245571 407.15 0.0364324C410.324-0.138221 413.502 0.316292 416.499 1.37383C419.497 2.43137 422.256 4.07109 424.618 6.19866C426.979 8.32625 428.897 10.8997 430.261 13.7711C431.625 16.6425 432.407 19.7551 432.564 22.93L432.564 22.93Z" fill="#767677" fill-rule="nonzero" opacity="1" stroke="none" vectornator:layerName="path"/>
<path d="M290.209 304.874C225.416 304.874 168.47 281.621 139.025 247.281C150.45 278.174 171.064 304.825 198.094 323.648C225.123 342.471 257.271 352.561 290.209 352.561C323.147 352.561 355.294 342.471 382.324 323.648C409.353 304.825 429.968 278.174 441.393 247.281C412.02 281.621 355.29 304.874 290.209 304.874Z" fill="#f37726" fill-rule="nonzero" opacity="1" stroke="none" vectornator:layerName="path"/>
<path d="M290.209 81.5683C355.002 81.5683 411.948 104.822 441.393 139.162C429.968 108.269 409.353 81.6175 382.324 62.7946C355.294 43.9718 323.147 33.8812 290.209 33.8812C257.271 33.8812 225.123 43.9718 198.094 62.7946C171.064 81.6175 150.45 108.269 139.025 139.162C168.47 104.75 225.128 81.5683 290.209 81.5683Z" fill="#f37726" fill-rule="nonzero" opacity="1" stroke="none" vectornator:layerName="path"/>
<path d="M201.014 371.702C201.394 377.794 199.951 383.861 196.871 389.13C193.79 394.4 189.211 398.633 183.716 401.29C178.221 403.948 172.06 404.909 166.016 404.052C159.973 403.195 154.322 400.558 149.782 396.478C145.243 392.398 142.021 387.058 140.527 381.14C139.033 375.222 139.334 368.993 141.393 363.247C143.452 357.501 147.175 352.498 152.087 348.875C156.999 345.252 162.879 343.174 168.977 342.905C172.971 342.691 176.969 343.267 180.741 344.598C184.513 345.93 187.986 347.992 190.961 350.666C193.936 353.341 196.355 356.575 198.08 360.184C199.805 363.793 200.802 367.707 201.014 371.702L201.014 371.702Z" fill="#9e9e9e" fill-rule="nonzero" opacity="1" stroke="none" vectornator:layerName="path"/>
<path d="M146.389 73.7426C142.898 73.839 139.456 72.901 136.496 71.0466C133.537 69.192 131.191 66.5038 129.756 63.3201C128.32 60.1363 127.857 56.599 128.426 53.1531C128.996 49.7072 130.571 46.5064 132.954 43.9535C135.338 41.4006 138.423 39.6093 141.822 38.8051C145.22 38.0008 148.781 38.2195 152.056 39.4335C155.331 40.6475 158.173 42.8028 160.227 45.6281C162.28 48.4535 163.452 51.8229 163.595 55.3126C163.731 60.0312 162.001 64.6132 158.78 68.0638C155.558 71.5144 151.106 73.555 146.389 73.7426Z" fill="#616262" fill-rule="nonzero" opacity="1" stroke="none" vectornator:layerName="path"/>
</g>
</g>
</g>
</svg>
